<svg width="800" height="600" xmlns="http://www.w3.org/2000/svg">

 <g>
  <title>Layer 1</title>
  <g>
   <path d="m648,300c0,136.96701 -111.03296,248 -248,248s-248,-111.03299 -248,-248s111.03299,-248 248,-248s248,111.03299 248,248zm-276.686,131.314l183.99997,-184c6.24805,-6.248 6.24805,-16.379 0,-22.627l-22.62701,-22.627c-6.24799,-6.24901 -16.37897,-6.24901 -22.62796,0l-150.05899,150.05801l-70.05902,-70.05899c-6.24799,-6.24802 -16.37897,-6.24802 -22.62799,0l-22.627,22.62698c-6.24799,6.24802 -6.24799,16.379 0,22.62701l104.00002,104c6.24899,6.24899 16.379,6.24899 22.62799,0.00098z" fill="#f58810"/>
  </g>
 </g>
</svg>