<svg width="448" height="512" xmlns="http://www.w3.org/2000/svg" role="img" class="svg-inline--fa fa-linkedin-in fa-w-14" data-icon="linkedin-in" data-prefix="fab" focusable="false" aria-hidden="true">

 <g>
  <title>Layer 1</title>
  <path id="svg_1" d="m100.28,448l-92.88,0l0,-299.10001l92.88,0l0,299.10001zm-46.49,-339.9c-29.7,0 -53.79,-24.6 -53.79,-54.3a53.79,53.79 0 0 1 107.58,0c0,29.7 -24.1,54.3 -53.79,54.3zm394.10999,339.9l-92.67999,0l0,-145.60001c0,-34.70001 -0.70001,-79.2 -48.29001,-79.2c-48.29001,0 -55.69,37.7 -55.69,76.7l0,148.10001l-92.77998,0l0,-299.10001l89.07999,0l0,40.8l1.3,0c12.39999,-23.5 42.69,-48.3 87.88,-48.3c94,0 111.28,61.90001 111.28,142.30002l0,164.29999l-0.10001,0z" fill="#f58810"/>
 </g>
</svg>