<svg width="512" height="512" xmlns="http://www.w3.org/2000/svg" role="img" class="svg-inline--fa fa-envelope fa-w-16" data-icon="envelope" data-prefix="fal" focusable="false" aria-hidden="true">

 <g>
  <title>Layer 1</title>
  <path id="svg_1" d="m464,64l-416,0c-26.5,0 -48,21.5 -48,48l0,288c0,26.5 21.5,48 48,48l416,0c26.5,0 48,-21.5 48,-48l0,-288c0,-26.5 -21.5,-48 -48,-48zm-416,32l416,0c8.79999,0 16,7.2 16,16l0,41.39999c-21.89999,18.5 -53.20001,44 -150.60001,121.30002c-16.89999,13.39999 -50.20001,45.70001 -73.40001,45.29999c-23.2,0.39999 -56.59999,-31.89999 -73.39999,-45.29999c-97.39999,-77.30002 -128.69999,-102.80002 -150.59999,-121.30002l0,-41.39999c0,-8.8 7.2,-16 16,-16zm416,320l-416,0c-8.8,0 -16,-7.20001 -16,-16l0,-205c22.8,18.7 58.8,47.60001 130.7,104.70001c20.5,16.39999 56.7,52.5 93.3,52.29999c36.39999,0.29999 72.29999,-35.5 93.29999,-52.29999c71.90002,-57.10001 107.90002,-86.00002 130.70001,-104.70001l0,205c0,8.79999 -7.20001,16 -16,16z" fill="#f58810"/>
 </g>
</svg>