<svg width="384" height="512" xmlns="http://www.w3.org/2000/svg" role="img" class="svg-inline--fa fa-map-marker-alt fa-w-12" data-icon="map-marker-alt" data-prefix="fal" focusable="false" aria-hidden="true">

 <g>
  <title>Layer 1</title>
  <path id="svg_1" d="m192,96c-52.935,0 -96,43.065 -96,96s43.065,96 96,96s96,-43.065 96,-96s-43.065,-96 -96,-96zm0,160c-35.28999,0 -64,-28.71001 -64,-64s28.71001,-64 64,-64s64,28.71001 64,64s-28.71001,64 -64,64zm0,-256c-106.039,0 -192,85.961 -192,192c0,77.41299 26.97,99.03101 172.26801,309.67001c9.53401,13.772 29.929,13.77402 39.46501,0c145.29698,-210.63901 172.26698,-232.25702 172.26698,-309.67001c0,-106.039 -85.961,-192 -192,-192zm0,473.931c-139.295,-201.44299 -160,-217.43701 -160,-281.931c0,-42.73801 16.643,-82.917 46.863,-113.137s70.39899,-46.863 113.137,-46.863s82.91699,16.643 113.13699,46.863s46.86301,70.39899 46.86301,113.137c0,64.48999 -20.69199,80.47 -160,281.931z" fill="#f58810"/>
 </g>
</svg>