<svg width="320" height="512" xmlns="http://www.w3.org/2000/svg" role="img" class="svg-inline--fa fa-mobile-android fa-w-10" data-icon="mobile-android" data-prefix="fal" focusable="false" aria-hidden="true">

 <g>
  <title>Layer 1</title>
  <path id="svg_1" d="m196,448l-72,0c-6.6,0 -12,-5.39999 -12,-12l0,-8c0,-6.60001 5.4,-12 12,-12l72,0c6.60001,0 12,5.39999 12,12l0,8c0,6.60001 -5.39999,12 -12,12zm124,-400l0,416c0,26.5 -21.5,48 -48,48l-224,0c-26.5,0 -48,-21.5 -48,-48l0,-416c0,-26.5 21.5,-48 48,-48l224,0c26.5,0 48,21.5 48,48zm-32,0c0,-8.8 -7.20001,-16 -16,-16l-224,0c-8.8,0 -16,7.2 -16,16l0,416c0,8.79999 7.2,16 16,16l224,0c8.79999,0 16,-7.20001 16,-16l0,-416z" fill="#f58810"/>
 </g>
</svg>