<svg width="448" height="512" xmlns="http://www.w3.org/2000/svg" role="img" class="svg-inline--fa fa-check-square fa-w-14" data-icon="check-square" data-prefix="fas" focusable="false" aria-hidden="true">

 <g>
  <title>Layer 1</title>
  <path id="svg_1" d="m400,480l-352,0c-26.51,0 -48,-21.48999 -48,-48l0,-352c0,-26.51 21.49,-48 48,-48l352,0c26.51001,0 48,21.49 48,48l0,352c0,26.51001 -21.48999,48 -48,48zm-204.686,-98.05899l184,-184.00002c6.24802,-6.248 6.24802,-16.379 0,-22.627l-22.62701,-22.627c-6.24799,-6.248 -16.379,-6.24899 -22.62799,0l-150.05899,150.058l-70.059,-70.05899c-6.248,-6.248 -16.37901,-6.248 -22.628,0l-22.62701,22.627c-6.248,6.248 -6.248,16.37898 0,22.627l104.00001,104c6.24899,6.25 16.379,6.25 22.62799,0.00101z" fill="#f58810"/>
 </g>
</svg>