<svg width="448" height="512" xmlns="http://www.w3.org/2000/svg" role="img" class="svg-inline--fa fa-square fa-w-14" data-icon="square" data-prefix="far" focusable="false" aria-hidden="true">

 <g>
  <title>Layer 1</title>
  <path id="svg_1" d="m400,32l-352,0c-26.5,0 -48,21.5 -48,48l0,352c0,26.5 21.5,48 48,48l352,0c26.5,0 48,-21.5 48,-48l0,-352c0,-26.5 -21.5,-48 -48,-48zm-6,400l-340,0c-3.3,0 -6,-2.70001 -6,-6l0,-340c0,-3.3 2.7,-6 6,-6l340,0c3.29999,0 6,2.7 6,6l0,340c0,3.29999 -2.70001,6 -6,6z" fill="#f58810"/>
 </g>
</svg>