<svg width="512" height="512" xmlns="http://www.w3.org/2000/svg" role="img" class="svg-inline--fa fa-twitter fa-w-16" data-icon="twitter" data-prefix="fab" focusable="false" aria-hidden="true">

 <g>
  <title>Layer 1</title>
  <path id="svg_1" d="m459.37,152.716c0.32501,4.548 0.32501,9.097 0.32501,13.64499c0,138.72003 -105.58301,298.55801 -298.55803,298.55801c-59.452,0 -114.68,-17.21899 -161.13699,-47.10599c8.447,0.974 16.568,1.29901 25.34,1.29901c49.055,0 94.213,-16.56802 130.27399,-44.832c-46.132,-0.97501 -84.79199,-31.18802 -98.11199,-72.77203c6.498,0.97403 12.995,1.62402 19.818,1.62402c9.421,0 18.84299,-1.29999 27.614,-3.573c-48.081,-9.74701 -84.143,-51.98 -84.143,-102.98502l0,-1.299c13.969,7.797 30.214,12.67 47.431,13.319c-28.264,-18.843 -46.78099,-51.005 -46.78099,-87.39099c0,-19.492 5.197,-37.36 14.294,-52.95399c51.65499,63.675 129.3,105.258 216.36501,109.80699c-1.62401,-7.797 -2.599,-15.918 -2.599,-24.03999c0,-57.828 46.78198,-104.934 104.93399,-104.934c30.21301,0 57.50201,12.67 76.67001,33.137c23.715,-4.548 46.45599,-13.32 66.599,-25.34c-7.798,24.366 -24.366,44.833 -46.13202,57.827c21.117,-2.27299 41.58401,-8.12199 60.42599,-16.243c-14.29199,20.791 -32.16098,39.30801 -52.62799,54.253l0,-0.00002z" fill="#f58810"/>
 </g>
</svg>