<?xml version="1.0" encoding="utf-8"?>
<!-- Generator: Adobe Illustrator 21.1.0, SVG Export Plug-In . SVG Version: 6.00 Build 0)  -->
<svg version="1.1" xmlns="http://www.w3.org/2000/svg" xmlns:xlink="http://www.w3.org/1999/xlink" x="0px" y="0px"
	 viewBox="0 0 100 100" style="enable-background:new 0 0 100 100;" xml:space="preserve">
<style type="text/css">
	.st0{display:none;}
	.st1{display:inline;}
	.st2{fill:none;stroke:#ee3e2b;stroke-width:1.6;stroke-miterlimit:10;}
	.st3{fill:#ee3e2b;}
</style>
<g id="foundations" class="st0">
	<g class="st1">
		<path class="st2" d="M50,95c-0.1,0-0.3,0-0.4-0.1L11.3,72.8c-0.2-0.1-0.4-0.4-0.4-0.6V27.9c0-0.3,0.1-0.5,0.4-0.6L49.6,5.1
			c0.2-0.1,0.5-0.1,0.7,0l38.3,22.1c0.2,0.1,0.4,0.4,0.4,0.6v44.3c0,0.3-0.1,0.5-0.4,0.6L50.4,94.9C50.2,95,50.1,95,50,95z
			 M88.4,72.1"/>
		<path class="st2" d="M50,64.2c-0.1,0-0.3,0-0.4-0.1L38,57.4c-0.2-0.1-0.4-0.4-0.4-0.6V43.3c0-0.3,0.1-0.5,0.4-0.6l11.7-6.7
			c0.2-0.1,0.5-0.1,0.7,0L62,42.6c0.2,0.1,0.4,0.4,0.4,0.6v13.5c0,0.3-0.1,0.5-0.4,0.6l-11.7,6.7C50.3,64.1,50.1,64.2,50,64.2z
			 M61.7,56.7"/>
		<g>
			<path class="st3" d="M50,5c-0.4,0-0.7,0.3-0.7,0.7V50c0,0.4,0.3,0.7,0.7,0.7c0.4,0,0.7-0.3,0.7-0.7V5.7C50.7,5.3,50.4,5,50,5
				L50,5z"/>
		</g>
		<g>
			<path class="st3" d="M50,49.3c-0.2,0-0.5,0.1-0.6,0.3c-0.2,0.3-0.1,0.8,0.3,1L88,72.7c0.1,0.1,0.2,0.1,0.4,0.1c0,0,0,0,0,0
				c0.2,0,0.4-0.1,0.5-0.3c0.2-0.3,0.1-0.8-0.2-1L50.3,49.4C50.2,49.3,50.1,49.3,50,49.3L50,49.3z"/>
		</g>
		<g>
			<path class="st3" d="M50,49.3c-0.1,0-0.2,0-0.3,0.1L11.3,71.5c-0.2,0.1-0.4,0.4-0.4,0.6c0,0.4,0.3,0.7,0.7,0.7c0,0,0,0,0,0
				c0.1,0,0.2-0.1,0.3-0.1l38.3-22.1c0.3-0.2,0.4-0.6,0.3-1C50.5,49.4,50.2,49.3,50,49.3L50,49.3z"/>
		</g>
		<g>
			<g>
				<path class="st3" d="M75,40.2c-0.7,0-1.2,0.5-1.2,1.2v-0.1c0,0,0,0.1,0,0.1c0,0.7,0.5,1.2,1.2,1.2c0,0,0,0,0,0
					c0.7,0,1.2-0.5,1.2-1.2C76.2,40.7,75.7,40.2,75,40.2L75,40.2z M75,46c-0.7,0-1.2,0.5-1.2,1.2v0c0,0,0,0,0,0
					c0,0.7,0.5,1.2,1.2,1.2c0,0,0,0,0,0c0.7,0,1.2-0.5,1.2-1.2S75.7,46,75,46L75,46z M75,51.7c-0.7,0-1.2,0.5-1.2,1.2v0c0,0,0,0,0,0
					c0,0.7,0.5,1.2,1.2,1.2c0,0,0,0,0,0c0.7,0,1.2-0.5,1.2-1.2C76.2,52.3,75.7,51.7,75,51.7L75,51.7z M75,57.5
					c-0.7,0-1.2,0.5-1.2,1.2c0,0,0,0,0,0c0,0.7,0.5,1.2,1.2,1.2c0,0,0,0,0,0c0.7,0,1.2-0.5,1.2-1.2C76.2,58,75.7,57.5,75,57.5
					L75,57.5z"/>
			</g>
			<g>
				<path class="st3" d="M75,34.4c-0.3,0-0.6,0.1-0.8,0.3c-0.2,0.2-0.4,0.5-0.4,0.8c0,0.1,0,0.2,0,0.2c0,0.1,0,0.1,0.1,0.2
					c0,0.1,0.1,0.1,0.1,0.2c0,0.1,0.1,0.1,0.2,0.2c0.2,0.2,0.5,0.3,0.8,0.3c0,0,0,0,0,0l0,0c0,0,0,0,0,0s0,0,0,0
					c0.7,0,1.2-0.5,1.2-1.2c0-0.3-0.1-0.6-0.3-0.8C75.7,34.5,75.4,34.4,75,34.4L75,34.4z"/>
			</g>
			<g>
				<path class="st3" d="M55,22.8c-0.4,0-0.8,0.2-1.1,0.6c-0.3,0.6-0.1,1.3,0.4,1.6v0c0.2,0.1,0.4,0.2,0.6,0.2c0,0,0,0,0,0
					c0,0,0,0,0,0c0.4,0,0.8-0.2,1-0.6c0,0,0,0,0,0c0.3-0.6,0.1-1.3-0.4-1.6C55.4,22.9,55.2,22.8,55,22.8L55,22.8z M60,25.7
					c-0.4,0-0.8,0.2-1.1,0.6c0,0,0,0,0,0c-0.3,0.6-0.1,1.3,0.4,1.6v0c0.2,0.1,0.4,0.1,0.6,0.1c0,0,0,0,0,0c0,0,0,0,0,0
					c0.4,0,0.8-0.2,1-0.6l0,0l0,0c0.3-0.6,0.1-1.3-0.4-1.6c0,0,0,0,0,0C60.4,25.7,60.2,25.7,60,25.7L60,25.7z M65,28.6
					c-0.4,0-0.8,0.2-1.1,0.6c-0.3,0.6-0.1,1.3,0.4,1.6l0,0c0.2,0.1,0.4,0.1,0.6,0.1c0,0,0,0,0,0c0,0,0,0,0,0c0.4,0,0.8-0.2,1-0.6
					c0,0,0,0,0,0c0.3-0.6,0.1-1.3-0.4-1.6C65.4,28.6,65.2,28.6,65,28.6L65,28.6z M70,31.4c-0.4,0-0.8,0.2-1.1,0.6c0,0,0,0,0,0
					c-0.3,0.6-0.1,1.3,0.4,1.6c0.2,0.1,0.3,0.1,0.5,0.1c0,0,0,0,0.1,0c0,0,0,0,0,0c0.4,0,0.8-0.2,1-0.6c0.3-0.6,0.1-1.3-0.4-1.6
					c0,0,0,0,0,0C70.4,31.5,70.2,31.4,70,31.4L70,31.4z"/>
			</g>
			<g>
				<path class="st3" d="M45,22.8c-0.2,0-0.4,0.1-0.6,0.2c0,0,0,0,0,0c-0.6,0.3-0.7,1.1-0.4,1.6v0c0.2,0.4,0.6,0.6,1,0.6
					c0,0,0,0,0,0c0,0,0,0,0,0c0.2,0,0.4-0.1,0.6-0.2c0,0,0,0,0,0c0.6-0.3,0.8-1.1,0.4-1.6C45.8,23,45.4,22.8,45,22.8L45,22.8z
					 M40.1,25.7c-0.2,0-0.4,0.1-0.6,0.2c0,0,0,0,0,0c-0.6,0.3-0.8,1.1-0.5,1.6v0c0.2,0.4,0.6,0.6,1,0.6c0,0,0,0,0.1,0c0,0,0,0,0,0
					c0.2,0,0.4-0.1,0.6-0.2c0.6-0.3,0.8-1.1,0.4-1.6C40.9,25.9,40.5,25.7,40.1,25.7L40.1,25.7z M35,28.6c-0.2,0-0.4,0.1-0.6,0.2
					c0,0,0,0,0,0c-0.6,0.3-0.8,1.1-0.4,1.7v0c0.2,0.4,0.6,0.6,1.1,0.6c0,0,0,0,0,0c0.2,0,0.4-0.1,0.6-0.2c0,0,0,0,0,0
					c0.6-0.3,0.8-1.1,0.4-1.7C35.8,28.8,35.4,28.6,35,28.6L35,28.6z M30,31.4c-0.2,0-0.4,0.1-0.6,0.2c0,0,0,0,0,0
					c-0.6,0.3-0.7,1.1-0.4,1.6c0.2,0.4,0.6,0.6,1,0.6c0,0,0,0,0,0c0,0,0,0,0,0c0.2,0,0.4-0.1,0.6-0.2c0,0,0,0,0,0
					c0.6-0.3,0.8-1.1,0.4-1.6C30.8,31.7,30.4,31.4,30,31.4L30,31.4z"/>
			</g>
			<g>
				<path class="st3" d="M25,34.3c-0.3,0-0.6,0.1-0.8,0.4c-0.1,0.1-0.1,0.1-0.2,0.2c0,0.1-0.1,0.1-0.1,0.2c0,0.1-0.1,0.2-0.1,0.2
					c0,0.1,0,0.2,0,0.2c0,0.1,0,0.2,0,0.2c0,0.1,0,0.1,0.1,0.2c0,0.1,0.1,0.1,0.1,0.2c0,0.1,0.1,0.1,0.2,0.2
					c0.2,0.2,0.5,0.4,0.9,0.4c0,0,0,0,0,0l0.2,0l0.2-0.1c0.1,0,0.1-0.1,0.2-0.1l0.2-0.1l0.1-0.2c0-0.1,0.1-0.1,0.1-0.2
					c0-0.1,0-0.1,0.1-0.2c0-0.1,0-0.2,0-0.2c0-0.1,0-0.2,0-0.2c0-0.1,0-0.2-0.1-0.2c0-0.1-0.1-0.1-0.1-0.2c0-0.1-0.1-0.1-0.1-0.2
					l-0.2-0.2c-0.1,0-0.1-0.1-0.2-0.1c-0.1,0-0.1-0.1-0.2-0.1C25.1,34.4,25,34.3,25,34.3L25,34.3z"/>
			</g>
			<g>
				<path class="st3" d="M25,40.2C25,40.2,25,40.2,25,40.2c-0.7,0-1.2,0.5-1.2,1.2v0c0,0,0,0,0,0v0c0,0,0,0,0,0.1
					c0,0.7,0.5,1.2,1.2,1.2c0,0,0,0,0,0c0.7,0,1.2-0.5,1.2-1.2c0,0,0,0,0,0C26.2,40.7,25.7,40.2,25,40.2L25,40.2z M25,46
					c-0.7,0-1.2,0.5-1.2,1.2v0c0,0,0,0,0,0c0,0.7,0.5,1.2,1.2,1.2c0,0,0,0,0,0c0.7,0,1.2-0.5,1.2-1.2C26.2,46.5,25.7,46,25,46L25,46
					z M25,51.7c-0.7,0-1.2,0.5-1.2,1.2v0c0,0,0,0,0,0c0,0.7,0.5,1.2,1.2,1.2c0,0,0,0,0,0c0.7,0,1.2-0.5,1.2-1.2
					C26.2,52.3,25.7,51.7,25,51.7L25,51.7z M25,57.5c-0.7,0-1.2,0.5-1.2,1.2c0,0,0,0,0,0c0,0.7,0.5,1.2,1.2,1.2h0
					c0.7,0,1.2-0.5,1.2-1.2S25.7,57.5,25,57.5L25,57.5z"/>
			</g>
			<g>
				<path class="st3" d="M30,66.2c-0.4,0-0.8,0.2-1,0.6c0,0,0,0,0,0c-0.3,0.6-0.1,1.3,0.4,1.6l0,0c0.2,0.1,0.4,0.2,0.6,0.2
					c0,0,0,0,0,0c0.4,0,0.8-0.2,1-0.6c0,0,0,0,0,0c0.3-0.6,0.1-1.3-0.4-1.6c0,0,0,0,0,0C30.4,66.2,30.2,66.2,30,66.2L30,66.2z
					 M35,69c-0.4,0-0.8,0.2-1,0.6c-0.3,0.6-0.1,1.3,0.4,1.6l0,0c0.2,0.1,0.4,0.2,0.6,0.2c0,0,0,0,0,0c0.4,0,0.8-0.2,1-0.6
					c0.3-0.6,0.1-1.3-0.4-1.6C35.4,69.1,35.2,69,35,69L35,69z M40,71.9c-0.4,0-0.8,0.2-1,0.6c0,0,0,0,0,0c-0.3,0.6-0.1,1.3,0.4,1.6
					l0,0c0.2,0.1,0.4,0.2,0.5,0.2c0.4,0,0.8-0.2,1-0.6c0.3-0.6,0.1-1.3-0.4-1.6C40.4,72,40.2,71.9,40,71.9L40,71.9z M45,74.8
					c-0.4,0-0.8,0.2-1,0.6c0,0,0,0,0,0c-0.3,0.6-0.1,1.3,0.4,1.6c0.2,0.1,0.4,0.2,0.6,0.2c0.4,0,0.8-0.2,1-0.6l0,0c0,0,0,0,0,0
					c0.3-0.6,0.1-1.3-0.4-1.6c0,0,0,0,0,0C45.4,74.8,45.2,74.8,45,74.8L45,74.8z"/>
			</g>
			<g>
				<path class="st3" d="M50,77.7c-0.1,0-0.2,0-0.2,0l-0.2,0.1c-0.1,0-0.1,0.1-0.2,0.1L49.1,78c-0.1,0.1-0.1,0.1-0.1,0.2
					c0,0.1-0.1,0.1-0.1,0.2c0,0.1,0,0.2-0.1,0.2c0,0.1,0,0.2,0,0.2c0,0.2,0,0.3,0.1,0.5c0.1,0.3,0.4,0.5,0.7,0.6
					c0.1,0.1,0.3,0.1,0.4,0.1c0,0,0,0,0,0c0.3,0,0.6-0.1,0.8-0.4c0.1-0.1,0.2-0.2,0.3-0.4c0.1-0.1,0.1-0.3,0.1-0.5
					c0-0.3-0.1-0.6-0.4-0.8C50.6,77.8,50.3,77.7,50,77.7L50,77.7z"/>
			</g>
			<g>
				<path class="st3" d="M70,66.2c-0.2,0-0.4,0.1-0.6,0.2c0,0,0,0,0,0c-0.6,0.3-0.8,1.1-0.4,1.6v0c0.2,0.4,0.6,0.6,1,0.6
					c0,0,0,0,0,0c0.2,0,0.4-0.1,0.6-0.2c0.6-0.3,0.8-1.1,0.4-1.6c0,0,0,0,0,0C70.8,66.4,70.4,66.2,70,66.2L70,66.2z M65,69
					c-0.2,0-0.4,0.1-0.6,0.2c-0.6,0.3-0.8,1.1-0.4,1.6v0c0.2,0.4,0.6,0.6,1,0.6c0,0,0,0,0,0c0.2,0,0.4-0.1,0.6-0.2
					c0.6-0.3,0.8-1.1,0.4-1.6C65.8,69.2,65.4,69,65,69L65,69z M60,71.9c-0.2,0-0.4,0.1-0.6,0.2c0,0,0,0,0,0
					c-0.6,0.3-0.8,1.1-0.4,1.6v0c0.2,0.4,0.6,0.6,1,0.6c0.2,0,0.4-0.1,0.6-0.2l0,0l0,0c0.6-0.3,0.8-1.1,0.4-1.6
					C60.8,72.1,60.4,71.9,60,71.9L60,71.9z M55,74.8c-0.2,0-0.4,0.1-0.6,0.2c0,0,0,0,0,0c-0.6,0.3-0.8,1.1-0.4,1.6
					c0.2,0.4,0.6,0.6,1,0.6c0,0,0,0,0,0c0.2,0,0.4-0.1,0.6-0.2c0.6-0.3,0.8-1.1,0.4-1.6l0,0l0,0C55.8,75,55.4,74.8,55,74.8L55,74.8z
					"/>
			</g>
		</g>
	</g>
</g>
<g id="platforms" class="st0">
	<g class="st1">
		<g>
			<path class="st3" d="M50,5c-0.1,0-0.2,0-0.4,0.1L11.3,27.3c-0.2,0.1-0.4,0.4-0.4,0.6c0,0.3,0.1,0.5,0.4,0.6l38.3,22.1
				c0.1,0.1,0.2,0.1,0.4,0.1c0,0,0,0,0,0c0.1,0,0.2,0,0.3-0.1l38.3-22.1c0.2-0.1,0.4-0.4,0.4-0.6c0-0.3-0.1-0.5-0.4-0.6L50.4,5.1
				C50.2,5,50.1,5,50,5L50,5z M50,49.2L13.1,28L50,6.6L86.9,28L50,49.2L50,49.2z"/>
		</g>
		<g>
			<path class="st3" d="M50,49.2c-0.1,0-0.2,0-0.4,0.1L11.3,71.6c-0.2,0.1-0.4,0.4-0.4,0.6c0,0.3,0.1,0.5,0.4,0.6l38.3,22.1
				C49.8,95,49.9,95,50,95c0,0,0,0,0,0c0,0,0,0,0,0c0.1,0,0.2,0,0.3-0.1l38.3-22.1c0.2-0.1,0.4-0.4,0.4-0.6c0-0.3-0.1-0.5-0.4-0.6
				L50.4,49.3C50.3,49.3,50.1,49.2,50,49.2L50,49.2z M50,93.5L13.1,72.2L50,50.8l36.9,21.4L50,93.5L50,93.5z"/>
		</g>
		<g>
			<path class="st3" d="M50,27.2c-0.1,0-0.2,0-0.4,0.1L11.3,49.5c-0.2,0.1-0.4,0.4-0.4,0.6c0,0.3,0.1,0.5,0.4,0.6l38.3,22.1
				c0.1,0.1,0.2,0.1,0.4,0.1c0,0,0,0,0,0c0,0,0,0,0,0c0.1,0,0.2,0,0.3-0.1l38.3-22.1c0.1-0.1,0.2-0.1,0.3-0.3c0.2-0.3,0.1-0.8-0.3-1
				L50.4,27.3C50.3,27.2,50.1,27.2,50,27.2L50,27.2z M50,71.4L13.1,50.1L50,28.7l36.9,21.4L50,71.4L50,71.4z"/>
		</g>
		<g>
			<path class="st3" d="M45,17.4c-0.2,0-0.4,0.1-0.6,0.2c-0.6,0.3-0.8,1.1-0.4,1.6c0.2,0.4,0.6,0.6,1,0.6c0,0,0,0,0,0c0,0,0,0,0,0
				c0.2,0,0.4-0.1,0.6-0.2c0.6-0.3,0.8-1.1,0.4-1.6C45.8,17.6,45.4,17.4,45,17.4L45,17.4z M40.1,20.3c-0.2,0-0.4,0.1-0.6,0.2
				c-0.5,0.3-0.7,1-0.4,1.6c0.2,0.4,0.6,0.6,1,0.6c0,0,0,0,0,0c0.2,0,0.4-0.1,0.6-0.2c0,0,0,0,0,0c0.6-0.3,0.7-1.1,0.4-1.6
				c0,0,0,0,0,0C40.9,20.5,40.5,20.3,40.1,20.3L40.1,20.3z M35.1,23.1c-0.2,0-0.4,0.1-0.6,0.2c0,0,0,0,0,0c-0.6,0.3-0.7,1.1-0.4,1.6
				c0.2,0.4,0.6,0.6,1,0.6c0,0,0,0,0,0c0.2,0,0.4-0.1,0.6-0.2l0,0l0,0c0.6-0.3,0.8-1.1,0.4-1.6l0,0l0,0C36,23.3,35.6,23.1,35.1,23.1
				L35.1,23.1z M30.2,26c-0.2,0-0.4,0.1-0.6,0.2c0,0,0,0,0,0c-0.6,0.3-0.7,1.1-0.4,1.6c0.2,0.4,0.6,0.6,1.1,0.6c0,0,0,0,0,0
				c0.2,0,0.4-0.1,0.6-0.2c0,0,0,0,0,0c0.6-0.4,0.7-1.1,0.4-1.7l0,0c0,0,0,0,0,0C31,26.2,30.6,26,30.2,26L30.2,26z M25.3,28.9
				c-0.2,0-0.4,0.1-0.6,0.2l0,0l0,0c-0.6,0.3-0.8,1.1-0.4,1.6c0.2,0.4,0.6,0.6,1,0.6c0,0,0,0,0,0c0,0,0,0,0,0c0.2,0,0.4-0.1,0.6-0.2
				c0,0,0,0,0,0c0.6-0.3,0.8-1.1,0.4-1.6c0,0,0,0,0,0C26.1,29.1,25.7,28.9,25.3,28.9L25.3,28.9z"/>
		</g>
		<g>
			<path class="st3" d="M50,14.5c-0.3,0-0.6,0.1-0.8,0.3c-0.2,0.2-0.3,0.5-0.3,0.9c0,0.1,0,0.2,0,0.2c0,0.1,0,0.2,0.1,0.2
				c0,0.1,0.1,0.1,0.1,0.2c0,0.1,0.1,0.1,0.1,0.2c0.2,0.2,0.5,0.4,0.9,0.4c0,0,0,0,0,0c0.3,0,0.6-0.1,0.8-0.4
				c0.1-0.1,0.1-0.1,0.2-0.2c0-0.1,0.1-0.1,0.1-0.2c0-0.1,0-0.2,0.1-0.2c0-0.1,0-0.2,0-0.2c0-0.3-0.1-0.6-0.3-0.9
				C50.6,14.7,50.3,14.5,50,14.5L50,14.5z"/>
		</g>
		<g>
			<path class="st3" d="M54.9,17.4c-0.4,0-0.8,0.2-1,0.6c0,0,0,0,0,0c-0.3,0.6-0.1,1.3,0.4,1.6v0c0.2,0.1,0.4,0.1,0.5,0.1
				c0,0,0,0,0.1,0c0,0,0,0,0,0c0.4,0,0.8-0.2,1-0.6c0.3-0.6,0.1-1.3-0.4-1.6C55.3,17.4,55.1,17.4,54.9,17.4L54.9,17.4z M59.9,20.3
				c-0.4,0-0.8,0.2-1,0.6c0,0,0,0,0,0c-0.3,0.6-0.1,1.3,0.4,1.6v0c0.2,0.1,0.4,0.1,0.5,0.1c0,0,0,0,0.1,0c0,0,0,0,0,0
				c0.4,0,0.8-0.2,1-0.6c0.3-0.6,0.1-1.3-0.4-1.6C60.3,20.3,60.1,20.3,59.9,20.3L59.9,20.3z M64.8,23.1c-0.4,0-0.8,0.2-1,0.6l0,0
				c0,0,0,0,0,0c-0.3,0.6-0.1,1.3,0.4,1.6v0c0.2,0.1,0.4,0.2,0.6,0.2c0,0,0,0,0,0c0.4,0,0.8-0.2,1-0.6c0,0,0,0,0,0
				c0.3-0.6,0.1-1.3-0.4-1.6c0,0,0,0,0,0C65.2,23.2,65,23.1,64.8,23.1L64.8,23.1z M69.8,26c-0.4,0-0.8,0.2-1,0.6
				c-0.3,0.6-0.1,1.3,0.4,1.6v0c0.2,0.1,0.4,0.2,0.6,0.2c0,0,0,0,0,0c0.4,0,0.8-0.2,1-0.6c0.3-0.6,0.1-1.3-0.4-1.6
				C70.2,26,70,26,69.8,26L69.8,26z M74.7,28.9c-0.4,0-0.8,0.2-1,0.6c0,0,0,0,0,0c-0.3,0.6-0.1,1.3,0.4,1.6c0.2,0.1,0.4,0.2,0.6,0.2
				c0,0,0,0,0,0c0,0,0,0,0,0c0.4,0,0.8-0.2,1-0.6c0,0,0,0,0,0c0.3-0.6,0.1-1.3-0.4-1.6C75.1,28.9,74.9,28.9,74.7,28.9L74.7,28.9z"/>
		</g>
		<g>
			<path class="st3" d="M50,83.2c-0.1,0-0.2,0-0.2,0c-0.1,0-0.2,0-0.2,0.1c-0.1,0-0.1,0.1-0.2,0.1l-0.2,0.2
				c-0.1,0.1-0.1,0.1-0.1,0.2c0,0.1-0.1,0.1-0.1,0.2c0,0.1,0,0.2-0.1,0.2c0,0.1,0,0.2,0,0.2c0,0.3,0.1,0.6,0.3,0.8
				c0.1,0.1,0.2,0.2,0.4,0.3c0.1,0.1,0.3,0.1,0.5,0.1c0,0,0,0,0,0c0.3,0,0.6-0.1,0.8-0.4c0.2-0.2,0.4-0.5,0.3-0.8c0-0.1,0-0.2,0-0.2
				c0-0.1,0-0.2-0.1-0.2c0-0.1-0.1-0.1-0.1-0.2c0-0.1-0.1-0.1-0.2-0.2C50.6,83.4,50.3,83.2,50,83.2L50,83.2z"/>
		</g>
		<g>
			<path class="st3" d="M25.3,68.9c-0.4,0-0.8,0.2-1,0.6c0,0,0,0,0,0c-0.3,0.6-0.1,1.3,0.4,1.6v0.1c0.1,0.1,0.3,0.1,0.5,0.1
				c0,0,0.1,0,0.1,0c0.4,0,0.8-0.2,1-0.6l0,0c0,0,0,0,0,0c0.3-0.6,0.1-1.3-0.4-1.6c0,0,0,0,0,0C25.7,68.9,25.5,68.9,25.3,68.9
				L25.3,68.9z M30.2,71.7c-0.4,0-0.8,0.2-1,0.6c-0.3,0.6-0.1,1.3,0.4,1.6V74c0.2,0.1,0.3,0.1,0.5,0.1c0,0,0.1,0,0.1,0c0,0,0,0,0,0
				c0.4,0,0.8-0.2,1-0.6c0.3-0.6,0.1-1.3-0.4-1.6C30.6,71.8,30.4,71.7,30.2,71.7L30.2,71.7z M35.2,74.6c-0.4,0-0.8,0.2-1,0.6
				c0,0,0,0,0,0c-0.3,0.6-0.1,1.3,0.4,1.6v0c0.2,0.1,0.4,0.1,0.5,0.1c0,0,0,0,0.1,0c0.4,0,0.8-0.2,1-0.6c0.3-0.6,0.1-1.3-0.4-1.6
				C35.6,74.7,35.4,74.6,35.2,74.6L35.2,74.6z M40.1,77.5c-0.4,0-0.8,0.2-1,0.6c0,0,0,0,0,0c-0.3,0.6-0.1,1.3,0.4,1.6l0,0
				c0.2,0.1,0.4,0.1,0.6,0.1c0,0,0,0,0,0c0.4,0,0.8-0.2,1-0.6c0,0,0,0,0,0c0.3-0.6,0.1-1.3-0.4-1.6l0,0c0,0,0,0,0,0
				C40.5,77.6,40.3,77.5,40.1,77.5L40.1,77.5z M45,80.4c-0.4,0-0.8,0.2-1,0.6c-0.3,0.6-0.1,1.3,0.4,1.6c0.2,0.1,0.4,0.2,0.6,0.2
				c0,0,0,0,0,0c0.4,0,0.8-0.2,1-0.6c0.3-0.6,0.1-1.3-0.4-1.6c0,0,0,0,0,0C45.5,80.4,45.2,80.4,45,80.4L45,80.4z"/>
		</g>
		<g>
			<path class="st3" d="M74.7,68.9c-0.2,0-0.4,0.1-0.6,0.2c0,0,0,0,0,0c-0.6,0.3-0.8,1.1-0.4,1.6v0.1c0.2,0.3,0.6,0.5,1,0.5
				c0,0,0,0,0,0c0.2,0,0.4-0.1,0.6-0.2l0,0l0,0c0.6-0.3,0.8-1.1,0.4-1.6C75.5,69.1,75.1,68.9,74.7,68.9L74.7,68.9z M69.8,71.7
				c-0.2,0-0.4,0.1-0.6,0.2l0,0l0,0c-0.6,0.3-0.8,1.1-0.4,1.6v0.1c0.2,0.3,0.6,0.5,1,0.5c0,0,0,0,0,0c0.2,0,0.4-0.1,0.6-0.2
				c0.6-0.3,0.8-1.1,0.4-1.6C70.6,72,70.2,71.7,69.8,71.7L69.8,71.7z M64.8,74.6c-0.2,0-0.4,0.1-0.6,0.2c0,0,0,0,0,0
				c-0.6,0.3-0.8,1.1-0.4,1.6l0,0c0.2,0.4,0.6,0.6,1,0.6c0,0,0,0,0,0c0.2,0,0.4-0.1,0.6-0.2c0,0,0,0,0,0c0.6-0.3,0.8-1.1,0.4-1.6
				l0,0l0,0C65.6,74.8,65.2,74.6,64.8,74.6L64.8,74.6z M59.9,77.5c-0.2,0-0.4,0.1-0.6,0.2c0,0,0,0,0,0c-0.6,0.3-0.7,1.1-0.4,1.6v0
				c0.2,0.4,0.6,0.6,1,0.6c0,0,0,0,0,0c0.2,0,0.4-0.1,0.6-0.2c0,0,0,0,0,0c0.6-0.3,0.7-1.1,0.4-1.6c0,0,0,0,0,0
				C60.7,77.7,60.3,77.5,59.9,77.5L59.9,77.5z M54.9,80.4c-0.2,0-0.4,0.1-0.6,0.2c0,0,0,0,0,0c-0.6,0.3-0.7,1.1-0.4,1.6
				c0.2,0.4,0.6,0.6,1,0.6c0.2,0,0.4-0.1,0.6-0.2c0,0,0,0,0,0c0.6-0.3,0.8-1.1,0.4-1.6l0,0l0,0C55.7,80.6,55.3,80.4,54.9,80.4
				L54.9,80.4z"/>
		</g>
		<g>
			<path class="st3" d="M20.1,60.1C20.1,60.1,20.1,60.1,20.1,60.1c-0.7,0-1.2,0.5-1.2,1.2c0,0,0,0,0,0c0,0.6,0.6,1.2,1.2,1.2
				c0,0,0,0,0,0c0.7,0,1.2-0.5,1.2-1.2c0,0,0,0,0,0C21.3,60.6,20.7,60.1,20.1,60.1L20.1,60.1z"/>
		</g>
		<g>
			<path class="st3" d="M20.1,48.9C20.1,48.9,20,48.9,20.1,48.9c-0.7,0-1.2,0.5-1.2,1.2c0,0,0,0,0,0c0,0.7,0.6,1.2,1.2,1.2
				c0,0,0,0,0,0c0.7,0,1.2-0.5,1.2-1.2c0,0,0,0,0,0C21.3,49.4,20.7,48.9,20.1,48.9L20.1,48.9z"/>
		</g>
		<g>
			<path class="st3" d="M20.1,37.7C20.1,37.7,20.1,37.7,20.1,37.7c-0.7,0-1.2,0.5-1.2,1.2c0,0,0,0,0,0c0,0.7,0.6,1.2,1.2,1.2
				c0,0,0,0,0,0c0.7,0,1.2-0.5,1.2-1.2c0,0,0,0,0,0C21.3,38.2,20.7,37.7,20.1,37.7L20.1,37.7z"/>
		</g>
		<g>
			<path class="st3" d="M79.6,60.1c-0.7,0-1.2,0.5-1.2,1.2s0.5,1.2,1.2,1.2s1.2-0.5,1.2-1.2S80.3,60.1,79.6,60.1L79.6,60.1z"/>
		</g>
		<g>
			<path class="st3" d="M79.6,48.9c-0.7,0-1.2,0.5-1.2,1.2c0,0.7,0.5,1.2,1.2,1.2c0.7,0,1.2-0.5,1.2-1.2
				C80.8,49.4,80.3,48.9,79.6,48.9L79.6,48.9z"/>
		</g>
		<g>
			<path class="st3" d="M79.6,37.7c-0.7,0-1.2,0.5-1.2,1.2c0,0.7,0.5,1.2,1.2,1.2c0.7,0,1.2-0.5,1.2-1.2
				C80.8,38.2,80.3,37.7,79.6,37.7L79.6,37.7z"/>
		</g>
	</g>
</g>
<g id="science" class="st0">
	<g class="st1">
		<g>
			<path class="st3" d="M24.5,19.8c-0.1,0-0.2,0-0.4,0.1l-12.8,7.4c-0.2,0.1-0.4,0.4-0.4,0.6v14.7c0,0.3,0.1,0.5,0.4,0.6l12.8,7.4
				c0.1,0.1,0.2,0.1,0.4,0.1l0,0c0,0,0,0,0,0c0.3,0,0.5-0.1,0.6-0.4c0.2-0.3,0.1-0.8-0.3-1l-12.5-7.2V28.3l12-7l12.5,7.2
				c0.1,0.1,0.2,0.1,0.4,0.1c0.2,0,0.5-0.1,0.6-0.4c0.2-0.3,0.1-0.8-0.3-1l-12.7-7.4C24.7,19.8,24.6,19.8,24.5,19.8L24.5,19.8z"/>
		</g>
		<g>
			<path class="st3" d="M50,5c-0.1,0-0.2,0-0.4,0.1l-12.8,7.4c-0.2,0.1-0.4,0.4-0.4,0.6v14.8c0,0.4,0.3,0.7,0.7,0.7
				c0.4,0,0.7-0.3,0.7-0.7V13.5l12.1-7l12.1,6.9v14.4c0,0.4,0.3,0.7,0.7,0.7c0,0,0,0,0,0c0.4,0,0.7-0.3,0.7-0.7V13.1
				c0-0.3-0.1-0.5-0.4-0.6L50.4,5.1C50.3,5,50.1,5,50,5L50,5z"/>
		</g>
		<g>
			<path class="st3" d="M62.8,71.4c-0.4,0-0.7,0.3-0.7,0.7v14.4l-12.1,7l-12.1-6.9V72.2c0-0.4-0.3-0.7-0.7-0.7
				c-0.4,0-0.7,0.3-0.7,0.7v14.7c0,0.3,0.1,0.5,0.4,0.6l12.8,7.4C49.7,95,49.9,95,50,95c0,0,0,0,0,0c0,0,0,0,0,0
				c0.1,0,0.2,0,0.4-0.1l12.8-7.4c0.2-0.1,0.4-0.4,0.4-0.6V72.1C63.5,71.7,63.2,71.4,62.8,71.4L62.8,71.4z"/>
		</g>
		<g>
			<path class="st3" d="M75.5,19.8c-0.1,0-0.2,0-0.4,0.1l-12.8,7.4c-0.3,0.2-0.5,0.6-0.3,1c0.1,0.2,0.4,0.4,0.6,0.4
				c0.1,0,0.2,0,0.4-0.1l12.5-7.2l12.1,7v13.9l-12.5,7.2c-0.2,0.1-0.4,0.4-0.4,0.6c0,0.4,0.3,0.7,0.7,0.7c0,0,0,0,0,0
				c0.1,0,0.2,0,0.3-0.1l12.8-7.4c0.2-0.1,0.4-0.4,0.4-0.6V27.9c0-0.3-0.1-0.5-0.4-0.6l-12.8-7.4C75.8,19.8,75.7,19.8,75.5,19.8
				L75.5,19.8z"/>
		</g>
		<g>
			<path class="st3" d="M24.5,49.3c-0.1,0-0.2,0-0.4,0.1l-12.8,7.4c-0.2,0.1-0.4,0.4-0.4,0.6v14.8c0,0.3,0.1,0.5,0.4,0.6l12.8,7.4
				c0.1,0.1,0.2,0.1,0.3,0.1c0,0,0,0,0,0c0,0,0,0,0,0c0.1,0,0.2,0,0.4-0.1l12.8-7.4c0.3-0.2,0.4-0.6,0.3-1c-0.1-0.2-0.4-0.3-0.6-0.3
				c-0.1,0-0.2,0-0.3,0.1l-12.5,7.2l-12.1-7V57.8l12.5-7.2c0.3-0.2,0.5-0.6,0.3-1C25,49.4,24.7,49.3,24.5,49.3L24.5,49.3z"/>
		</g>
		<g>
			<path class="st3" d="M75.6,49.3c-0.2,0-0.5,0.1-0.6,0.4c-0.2,0.3-0.1,0.8,0.3,1l12.5,7.2v14l-12.1,7l-12.5-7.2
				c-0.1-0.1-0.2-0.1-0.3-0.1c-0.2,0-0.5,0.1-0.6,0.3c-0.2,0.3-0.1,0.8,0.3,1l12.7,7.4c0.1,0.1,0.2,0.1,0.4,0.1c0,0,0,0,0,0
				c0.1,0,0.2,0,0.3-0.1l12.8-7.4c0.2-0.1,0.4-0.4,0.4-0.6V57.4c0-0.3-0.1-0.5-0.4-0.6l-12.8-7.4C75.8,49.3,75.7,49.3,75.6,49.3
				L75.6,49.3z"/>
		</g>
		<g>
			<path class="st3" d="M24.4,19.8c-0.4,0-0.7,0.3-0.7,0.7v59c0,0.4,0.3,0.7,0.7,0.7c0,0,0,0,0,0c0.4,0,0.7-0.3,0.7-0.7V20.5
				C25.2,20.1,24.8,19.8,24.4,19.8L24.4,19.8z"/>
		</g>
		<g>
			<path class="st3" d="M75.6,19.8c-0.4,0-0.7,0.3-0.7,0.7v59c0,0,0,0,0,0c0,0.4,0.3,0.7,0.7,0.7c0,0,0,0,0,0c0,0,0,0,0,0
				c0.4,0,0.7-0.3,0.7-0.7V20.5C76.3,20.1,76,19.8,75.6,19.8L75.6,19.8z"/>
		</g>
		<g>
			<path class="st3" d="M62.8,12.4c-0.1,0-0.2,0-0.4,0.1L11.3,42c-0.2,0.1-0.4,0.4-0.4,0.6c0,0.4,0.3,0.7,0.7,0.7c0,0,0,0,0,0
				c0,0,0,0,0,0c0.1,0,0.2,0,0.4-0.1l51.1-29.5c0.3-0.2,0.5-0.6,0.3-1C63.3,12.5,63.1,12.4,62.8,12.4L62.8,12.4z"/>
		</g>
		<g>
			<path class="st3" d="M88.3,56.6c-0.1,0-0.2,0-0.4,0.1L36.9,86.3c-0.2,0.1-0.4,0.4-0.4,0.6c0,0.4,0.3,0.7,0.7,0.7c0,0,0,0,0,0
				c0.1,0,0.2,0,0.3-0.1L88.7,58c0.3-0.2,0.5-0.6,0.3-1C88.8,56.8,88.6,56.6,88.3,56.6L88.3,56.6z"/>
		</g>
		<g>
			<path class="st3" d="M37.2,12.4c-0.2,0-0.5,0.1-0.6,0.4c-0.2,0.3-0.1,0.8,0.3,1L88,43.2c0.1,0.1,0.2,0.1,0.3,0.1c0,0,0,0,0,0l0,0
				c0.2,0,0.5-0.1,0.6-0.3c0.2-0.3,0.1-0.8-0.2-1L37.5,12.5C37.4,12.4,37.3,12.4,37.2,12.4L37.2,12.4z"/>
		</g>
		<g>
			<path class="st3" d="M11.7,56.7c-0.2,0-0.5,0.1-0.6,0.4c-0.2,0.3-0.1,0.8,0.3,1l51.1,29.6c0.1,0.1,0.2,0.1,0.4,0.1l0,0
				c0,0,0,0,0,0c0.3,0,0.5-0.1,0.6-0.4c0.2-0.3,0.1-0.8-0.3-1L12,56.7C11.9,56.7,11.8,56.7,11.7,56.7L11.7,56.7z"/>
		</g>
		<g>
			<path class="st3" d="M50,34c-0.3,0-0.6,0.1-0.8,0.3c-0.1,0.1-0.1,0.1-0.2,0.2c0,0.1-0.1,0.1-0.1,0.2c0,0.1-0.1,0.1-0.1,0.2
				c0,0.1,0,0.2,0,0.2c0,0.3,0.1,0.6,0.4,0.8c0.1,0.1,0.1,0.1,0.2,0.2l0.2,0.1c0.1,0,0.2,0.1,0.2,0.1c0,0,0.1,0,0.1,0
				c0,0,0.1,0,0.1,0c0,0,0.1,0,0.1,0c0,0,0.1,0,0.1,0c0.1,0,0.2,0,0.2-0.1l0.2-0.1c0.1,0,0.1-0.1,0.2-0.2c0.1-0.1,0.1-0.1,0.2-0.2
				l0.1-0.2c0-0.1,0-0.2,0.1-0.2c0-0.1,0-0.2,0-0.2c0-0.1,0-0.2,0-0.2c0-0.1,0-0.1-0.1-0.2L51,34.6c0-0.1-0.1-0.1-0.2-0.2
				c-0.1-0.1-0.1-0.1-0.2-0.1c-0.1,0-0.1-0.1-0.2-0.1l-0.2-0.1C50.1,34,50,34,50,34L50,34z"/>
		</g>
		<g>
			<g>
				<path class="st3" d="M50,28.7c-0.3,0-0.6,0.1-0.8,0.3c-0.1,0.1-0.1,0.1-0.2,0.2c0,0.1-0.1,0.1-0.1,0.2c0,0.1-0.1,0.1-0.1,0.2
					c0,0.1,0,0.2,0,0.2c0,0.3,0.1,0.6,0.4,0.8c0.1,0.1,0.1,0.1,0.2,0.2l0.2,0.1c0.1,0,0.2,0.1,0.2,0.1c0,0,0.1,0,0.1,0
					c0,0,0.1,0,0.1,0c0,0,0.1,0,0.1,0c0,0,0.1,0,0.1,0c0.1,0,0.2,0,0.2-0.1l0.2-0.1c0.1,0,0.1-0.1,0.2-0.2c0.1-0.1,0.1-0.1,0.2-0.2
					l0.1-0.2c0-0.1,0-0.2,0.1-0.2c0-0.1,0-0.2,0-0.2c0-0.1,0-0.2,0-0.2c0-0.1,0-0.1-0.1-0.2L51,29.2c0-0.1-0.1-0.1-0.2-0.2
					c-0.1-0.1-0.1-0.1-0.2-0.1c-0.1,0-0.1-0.1-0.2-0.1l-0.2-0.1C50.1,28.7,50,28.7,50,28.7L50,28.7z"/>
			</g>
			<g>
				<path class="st3" d="M50,23.4c-0.3,0-0.6,0.1-0.8,0.3c-0.1,0.1-0.1,0.1-0.2,0.2l-0.2,0.3c0,0.1-0.1,0.1-0.1,0.2
					c0,0.1,0,0.2,0,0.2c0,0.3,0.1,0.6,0.4,0.8l0.2,0.2l0.2,0.1l0.2,0.1c0,0,0.1,0,0.1,0c0,0,0.1,0,0.1,0c0.1,0,0.2,0,0.3-0.1
					l0.2-0.1l0.2-0.1l0.2-0.2c0.1-0.1,0.1-0.1,0.2-0.2c0-0.1,0.1-0.1,0.1-0.2c0-0.1,0.1-0.1,0.1-0.2c0-0.1,0-0.2,0-0.2
					c0-0.1,0-0.2,0-0.2c0-0.1,0-0.1-0.1-0.2L51,24c0-0.1-0.1-0.1-0.2-0.2l-0.2-0.2l-0.2-0.1l-0.2-0.1C50.2,23.4,50.1,23.4,50,23.4
					L50,23.4z"/>
			</g>
			<g>
				<path class="st3" d="M50,38.8c-0.7,0-1.2,0.5-1.2,1.2c0,0.7,0.5,1.2,1.2,1.2s1.2-0.5,1.2-1.2C51.2,39.3,50.7,38.8,50,38.8
					L50,38.8z M50,43.8c-0.7,0-1.2,0.5-1.2,1.2c0,0.7,0.5,1.2,1.2,1.2s1.2-0.5,1.2-1.2C51.2,44.3,50.7,43.8,50,43.8L50,43.8z
					 M50,48.7c-0.7,0-1.2,0.5-1.2,1.2s0.5,1.2,1.2,1.2s1.2-0.5,1.2-1.2S50.7,48.7,50,48.7L50,48.7z M50,53.7c-0.7,0-1.2,0.5-1.2,1.2
					c0,0.7,0.5,1.2,1.2,1.2s1.2-0.5,1.2-1.2C51.2,54.2,50.7,53.7,50,53.7L50,53.7z M50,58.6c-0.7,0-1.2,0.5-1.2,1.2
					c0,0.7,0.5,1.2,1.2,1.2s1.2-0.5,1.2-1.2C51.2,59.2,50.7,58.6,50,58.6L50,58.6z"/>
			</g>
			<g>
				<path class="st3" d="M50,63.6c-0.3,0-0.6,0.1-0.8,0.3C49.1,64,49,64.1,49,64.1c0,0.1-0.1,0.1-0.1,0.2c0,0.1-0.1,0.2-0.1,0.2
					c0,0.1,0,0.2,0,0.2c0,0.1,0,0.2,0,0.2c0,0.1,0,0.1,0.1,0.2c0,0.1,0.1,0.1,0.1,0.2c0,0.1,0.1,0.1,0.2,0.2
					c0.1,0.1,0.1,0.1,0.2,0.1c0.1,0,0.1,0.1,0.2,0.1l0.2,0.1c0,0,0.1,0,0.1,0s0.1,0,0.1,0c0,0,0.1,0,0.1,0c0,0,0.1,0,0.1,0l0.2-0.1
					c0.1,0,0.1-0.1,0.2-0.1c0.1,0,0.1-0.1,0.2-0.1c0.1-0.1,0.1-0.1,0.2-0.2l0.1-0.2c0-0.1,0-0.1,0.1-0.2c0-0.1,0-0.2,0-0.2
					c0-0.1,0-0.2,0-0.2c0-0.1,0-0.2-0.1-0.2L51,64.1c0-0.1-0.1-0.1-0.2-0.2c-0.1-0.1-0.1-0.1-0.2-0.2l-0.2-0.1
					c-0.1,0-0.2-0.1-0.2-0.1C50.2,63.6,50.1,63.6,50,63.6L50,63.6z"/>
			</g>
			<g>
				<path class="st3" d="M50,68.7c-0.3,0-0.6,0.1-0.8,0.3c-0.1,0.1-0.1,0.1-0.2,0.2c0,0.1-0.1,0.1-0.1,0.2c0,0.1-0.1,0.2-0.1,0.2
					c0,0.1,0,0.2,0,0.2c0,0.1,0,0.2,0,0.2c0,0.1,0,0.1,0.1,0.2c0,0.1,0.1,0.1,0.1,0.2c0,0.1,0.1,0.1,0.2,0.2
					c0.1,0.1,0.1,0.1,0.2,0.1c0.1,0,0.1,0.1,0.2,0.1l0.2,0.1c0,0,0.1,0,0.1,0s0.1,0,0.1,0c0,0,0.1,0,0.1,0c0,0,0.1,0,0.1,0l0.2-0.1
					c0.1,0,0.1-0.1,0.2-0.1c0.1,0,0.1-0.1,0.2-0.1c0.1-0.1,0.1-0.1,0.2-0.2l0.1-0.2c0-0.1,0-0.1,0.1-0.2c0-0.1,0-0.2,0-0.2
					c0-0.1,0-0.2,0-0.2c0-0.1,0-0.2-0.1-0.2L51,69.2c0-0.1-0.1-0.1-0.2-0.2c-0.1-0.1-0.1-0.1-0.2-0.2l-0.2-0.1
					c-0.1,0-0.2-0.1-0.2-0.1C50.2,68.7,50.1,68.7,50,68.7L50,68.7z"/>
			</g>
			<g>
				<path class="st3" d="M50,73.7c-0.3,0-0.6,0.1-0.8,0.3c-0.1,0.1-0.1,0.1-0.2,0.2c0,0.1-0.1,0.1-0.1,0.2c0,0.1-0.1,0.2-0.1,0.2
					c0,0.1,0,0.2,0,0.2c0,0.1,0,0.2,0,0.2c0,0.1,0,0.1,0.1,0.2c0,0.1,0.1,0.1,0.1,0.2c0,0.1,0.1,0.1,0.2,0.2
					c0.1,0.1,0.1,0.1,0.2,0.1c0.1,0,0.1,0.1,0.2,0.1l0.2,0.1c0,0,0.1,0,0.1,0s0.1,0,0.1,0c0,0,0.1,0,0.1,0c0,0,0.1,0,0.1,0l0.2-0.1
					c0.1,0,0.1-0.1,0.2-0.1c0.1,0,0.1-0.1,0.2-0.1c0.1-0.1,0.1-0.1,0.2-0.2l0.1-0.2c0-0.1,0-0.1,0.1-0.2c0-0.1,0-0.2,0-0.2
					c0-0.1,0-0.2,0-0.2c0-0.1,0-0.2-0.1-0.2L51,74.3c0-0.1-0.1-0.1-0.2-0.2c-0.1-0.1-0.1-0.1-0.2-0.2l-0.2-0.1
					c-0.1,0-0.2-0.1-0.2-0.1C50.2,73.7,50.1,73.7,50,73.7L50,73.7z"/>
			</g>
			<g>
				<path class="st3" d="M28.6,36.3c-0.4,0-0.8,0.2-1,0.6l0,0l0,0c-0.3,0.6-0.1,1.3,0.4,1.6v0c0.2,0.1,0.4,0.2,0.6,0.2c0,0,0,0,0,0
					c0.4,0,0.8-0.2,1-0.6c0,0,0,0,0,0c0.3-0.6,0.1-1.3-0.5-1.6c0,0,0,0,0,0C29,36.4,28.8,36.3,28.6,36.3L28.6,36.3z M32.9,38.8
					c-0.4,0-0.8,0.2-1,0.6c0,0,0,0,0,0c-0.3,0.6-0.1,1.3,0.4,1.6c0.2,0.1,0.4,0.2,0.6,0.2c0,0,0,0,0,0c0.4,0,0.8-0.2,1.1-0.6
					c0,0,0,0,0,0c0.3-0.6,0.1-1.3-0.4-1.6l0,0l0,0C33.3,38.9,33.1,38.8,32.9,38.8L32.9,38.8z M37.1,41.3c-0.4,0-0.8,0.2-1,0.6
					c-0.3,0.6-0.1,1.3,0.4,1.6c0.2,0.1,0.4,0.2,0.6,0.2c0.4,0,0.8-0.2,1-0.6c0.3-0.6,0.1-1.3-0.4-1.6C37.5,41.3,37.3,41.3,37.1,41.3
					L37.1,41.3z M41.4,43.8c-0.4,0-0.8,0.2-1,0.6c0,0,0,0,0,0c-0.3,0.6-0.1,1.3,0.4,1.6c0.2,0.1,0.4,0.2,0.6,0.2
					c0.4,0,0.8-0.2,1.1-0.6c0.3-0.6,0.1-1.3-0.4-1.6C41.8,43.8,41.6,43.8,41.4,43.8L41.4,43.8z M45.7,46.2c-0.4,0-0.8,0.2-1.1,0.6
					c-0.3,0.6-0.1,1.3,0.4,1.6c0.2,0.1,0.4,0.2,0.6,0.2c0,0,0,0,0,0c0.4,0,0.8-0.2,1-0.6c0.3-0.6,0.1-1.3-0.4-1.6
					C46.1,46.3,45.9,46.2,45.7,46.2L45.7,46.2z M50,48.7c-0.4,0-0.8,0.2-1,0.6l0,0l0,0c-0.3,0.6-0.1,1.3,0.4,1.6
					c0.2,0.1,0.4,0.2,0.6,0.2c0,0,0,0,0,0c0,0,0,0,0,0c0.4,0,0.8-0.2,1-0.6c0,0,0,0,0,0c0.3-0.6,0.1-1.3-0.4-1.6
					C50.4,48.7,50.2,48.7,50,48.7L50,48.7z M54.3,51.2c-0.4,0-0.8,0.2-1,0.6c-0.3,0.6-0.1,1.3,0.4,1.6c0.2,0.1,0.4,0.2,0.6,0.2
					c0,0,0,0,0,0c0,0,0,0,0,0c0.4,0,0.8-0.2,1-0.6c0,0,0,0,0,0c0.3-0.6,0.1-1.3-0.4-1.6c0,0,0,0,0,0C54.7,51.2,54.5,51.2,54.3,51.2
					L54.3,51.2z M58.6,53.6c-0.4,0-0.8,0.2-1,0.6l0,0l0,0c-0.3,0.6-0.1,1.3,0.4,1.6c0.2,0.1,0.4,0.2,0.6,0.2c0,0,0,0,0,0
					c0.4,0,0.8-0.2,1-0.6c0,0,0,0,0,0c0.3-0.6,0.1-1.3-0.5-1.6C59,53.7,58.8,53.6,58.6,53.6L58.6,53.6z M62.9,56.1
					c-0.4,0-0.8,0.2-1.1,0.6c0,0,0,0,0,0c-0.3,0.6-0.1,1.3,0.4,1.6c0.2,0.1,0.4,0.2,0.6,0.2c0,0,0,0,0.1,0c0,0,0,0,0,0
					c0.4,0,0.8-0.2,1-0.6c0,0,0,0,0,0c0.3-0.6,0.1-1.3-0.4-1.6c0,0,0,0,0,0C63.3,56.1,63.1,56.1,62.9,56.1L62.9,56.1z M67.1,58.6
					c-0.4,0-0.8,0.2-1,0.6c0,0,0,0,0,0c-0.3,0.6-0.1,1.3,0.4,1.6c0.2,0.1,0.4,0.2,0.6,0.2c0,0,0,0,0,0c0.4,0,0.8-0.2,1-0.6
					c0.3-0.6,0.1-1.3-0.4-1.6C67.5,58.6,67.3,58.6,67.1,58.6L67.1,58.6z M71.4,61.1c-0.4,0-0.8,0.2-1,0.6c0,0,0,0,0,0
					c-0.3,0.6-0.1,1.3,0.4,1.6c0.2,0.1,0.4,0.2,0.6,0.2c0,0,0,0,0,0c0,0,0,0,0,0c0.4,0,0.8-0.2,1-0.6l0,0l0,0
					c0.3-0.6,0.1-1.3-0.4-1.6c0,0,0,0,0,0C71.8,61.1,71.6,61.1,71.4,61.1L71.4,61.1z"/>
			</g>
			<g>
				<path class="st3" d="M71.4,36.4c-0.2,0-0.4,0.1-0.6,0.2c0,0,0,0,0,0c-0.6,0.3-0.8,1.1-0.4,1.6c0.2,0.4,0.6,0.6,1,0.6
					c0,0,0,0,0,0c0,0,0,0,0,0c0.2,0,0.4-0.1,0.6-0.2c0.6-0.3,0.8-1.1,0.4-1.6C72.2,36.6,71.8,36.4,71.4,36.4L71.4,36.4z M67.1,38.8
					c-0.2,0-0.4,0.1-0.6,0.2c0,0,0,0,0,0c-0.6,0.3-0.8,1.1-0.4,1.6l0,0c0.2,0.4,0.6,0.6,1,0.6c0,0,0,0,0,0c0.2,0,0.4-0.1,0.6-0.2
					c0,0,0,0,0,0c0.6-0.3,0.8-1.1,0.4-1.7c0,0,0,0,0,0C67.9,39,67.5,38.8,67.1,38.8L67.1,38.8z M62.8,41.3c-0.2,0-0.4,0.1-0.6,0.2
					c-0.6,0.3-0.8,1.1-0.4,1.6h0c0.2,0.4,0.6,0.6,1,0.6c0,0,0,0,0,0c0.2,0,0.4-0.1,0.6-0.2c0.5-0.4,0.7-1.1,0.4-1.6
					C63.6,41.5,63.2,41.3,62.8,41.3L62.8,41.3z M58.6,43.8c-0.2,0-0.4,0.1-0.6,0.2c-0.6,0.3-0.8,1-0.5,1.6h0c0.2,0.4,0.6,0.6,1,0.6
					c0,0,0,0,0,0c0.2,0,0.4-0.1,0.6-0.2c0,0,0,0,0,0c0.6-0.3,0.8-1.1,0.4-1.6c0,0,0,0,0,0C59.4,44,59,43.8,58.6,43.8L58.6,43.8z
					 M54.3,46.2c-0.2,0-0.4,0.1-0.6,0.2c-0.6,0.3-0.8,1.1-0.4,1.6h0c0.2,0.4,0.6,0.6,1,0.6c0,0,0,0,0,0c0.2,0,0.4-0.1,0.6-0.2
					c0,0,0,0,0,0c0.6-0.3,0.8-1.1,0.4-1.6l0,0l0,0C55.1,46.4,54.7,46.2,54.3,46.2L54.3,46.2z M50,48.7c-0.2,0-0.4,0.1-0.6,0.2
					c0,0,0,0,0,0c-0.6,0.3-0.8,1.1-0.4,1.6h0c0.2,0.4,0.6,0.6,1,0.6c0.2,0,0.4-0.1,0.6-0.2c0,0,0,0,0,0c0.6-0.3,0.8-1.1,0.4-1.6
					C50.8,48.9,50.4,48.7,50,48.7L50,48.7z M45.7,51.2c-0.2,0-0.4,0.1-0.6,0.2c0,0,0,0,0,0c-0.6,0.3-0.8,1.1-0.4,1.6h0
					c0.2,0.4,0.6,0.6,1,0.6c0,0,0,0,0,0c0.2,0,0.4-0.1,0.6-0.2c0.6-0.3,0.8-1.1,0.4-1.6c0,0,0,0,0,0C46.5,51.4,46.1,51.2,45.7,51.2
					L45.7,51.2z M41.4,53.6c-0.2,0-0.4,0.1-0.6,0.2c0,0,0,0,0,0c-0.6,0.3-0.8,1.1-0.4,1.6c0.2,0.4,0.6,0.6,1,0.6
					c0.2,0,0.4-0.1,0.6-0.2l0,0l0,0c0.6-0.3,0.8-1.1,0.4-1.6C42.2,53.9,41.8,53.6,41.4,53.6L41.4,53.6z M37.1,56.1
					c-0.2,0-0.4,0.1-0.6,0.2c-0.6,0.3-0.7,1.1-0.4,1.6c0.2,0.4,0.6,0.6,1.1,0.6c0,0,0,0,0,0c0.2,0,0.4-0.1,0.6-0.2c0,0,0,0,0,0
					c0.6-0.4,0.7-1.1,0.4-1.7C37.9,56.3,37.5,56.1,37.1,56.1L37.1,56.1z M32.9,58.6c-0.2,0-0.4,0.1-0.6,0.2c0,0,0,0,0,0
					c-0.6,0.3-0.8,1.1-0.4,1.6c0.2,0.4,0.6,0.6,1,0.6c0,0,0,0,0,0c0,0,0,0,0,0c0.2,0,0.4-0.1,0.6-0.2c0,0,0,0,0,0
					c0.6-0.3,0.8-1.1,0.4-1.6c0,0,0,0,0,0C33.7,58.8,33.3,58.6,32.9,58.6L32.9,58.6z M28.6,61.1c-0.2,0-0.4,0.1-0.6,0.2
					c-0.6,0.3-0.8,1.1-0.4,1.6c0.2,0.4,0.6,0.6,1.1,0.6c0.2,0,0.4-0.1,0.6-0.2c0.6-0.3,0.8-1.1,0.4-1.6c0,0,0,0,0,0
					C29.4,61.3,29,61.1,28.6,61.1L28.6,61.1z"/>
			</g>
		</g>
		<g>
			<path class="st3" d="M37.2,57.2c0,0,0.1,0,0.1,0c0,0,0,0,0,0c0,0,0,0,0,0l0,0l0,0.1c0,0.1,0,0.1,0,0.1c0,0,0,0,0,0l0,0l0,0l0,0
				c0,0-0.1,0-0.1,0L37,57.4l0-0.1l0-0.1c0,0,0,0,0,0c0,0,0,0,0,0C37.1,57.2,37.2,57.2,37.2,57.2 M37.2,56.2c-0.3,0-0.6,0.1-0.8,0.3
				c-0.1,0.1-0.1,0.1-0.1,0.2c0,0.1-0.1,0.1-0.1,0.2c0,0.1,0,0.2-0.1,0.2c0,0.1,0,0.2,0,0.2c0,0.1,0,0.2,0,0.2c0,0.1,0,0.1,0.1,0.2
				c0,0.1,0.1,0.1,0.1,0.2l0.1,0.2c0.2,0.2,0.5,0.3,0.9,0.3l0.2,0l0.2-0.1c0.1,0,0.1-0.1,0.2-0.1c0.1,0,0.1-0.1,0.2-0.1
				c0.2-0.2,0.3-0.5,0.3-0.9c0-0.1,0-0.2,0-0.2c0-0.1,0-0.2-0.1-0.2c0-0.1-0.1-0.1-0.1-0.2c0-0.1-0.1-0.1-0.2-0.2
				C37.8,56.3,37.5,56.2,37.2,56.2L37.2,56.2z"/>
		</g>
		<g>
			<path class="st3" d="M62.7,57.2c0,0,0.1,0,0.1,0l0,0l0,0l0,0l0,0.1c0,0.1,0,0.1-0.1,0.2c0,0-0.1,0.1-0.1,0.1c-0.1,0-0.1,0-0.1,0
				c0,0-0.1-0.1-0.1-0.2l0,0l0,0c0,0,0,0,0,0C62.6,57.2,62.7,57.2,62.7,57.2 M62.7,56.2c-0.3,0-0.6,0.1-0.8,0.3
				c-0.1,0.1-0.1,0.1-0.2,0.2c0,0.1-0.1,0.1-0.1,0.2c0,0.1-0.1,0.2-0.1,0.2c0,0.1,0,0.2,0,0.2c0,0.3,0.1,0.6,0.4,0.9
				c0.2,0.2,0.5,0.3,0.8,0.3c0,0,0,0,0,0c0.3,0,0.6-0.1,0.8-0.3c0.2-0.2,0.3-0.5,0.4-0.9c0-0.1,0-0.2,0-0.2c0-0.1,0-0.2-0.1-0.2
				c0-0.1-0.1-0.1-0.1-0.2c0-0.1-0.1-0.1-0.1-0.2C63.4,56.3,63.1,56.2,62.7,56.2L62.7,56.2z"/>
		</g>
		<g>
			<path class="st3" d="M62.7,42.4c0.1,0,0.1,0,0.1,0l0,0l0,0c0,0,0,0,0,0l0,0l0,0.1c0,0.1,0,0.1,0,0.1c0,0-0.1,0.1-0.2,0.1l0,0l0,0
				l0,0l0,0c0,0,0-0.1,0-0.1l0-0.1l0,0c0,0,0,0,0,0c0,0,0,0,0,0c0,0,0,0,0,0C62.6,42.5,62.6,42.5,62.7,42.4L62.7,42.4
				C62.7,42.4,62.7,42.4,62.7,42.4 M62.7,41.4c-0.1,0-0.2,0-0.2,0l-0.2,0.1c-0.1,0-0.1,0.1-0.2,0.1c-0.1,0-0.1,0.1-0.2,0.1
				c-0.1,0.1-0.1,0.1-0.2,0.2c0,0.1-0.1,0.1-0.1,0.2c0,0.1-0.1,0.1-0.1,0.2c0,0.1,0,0.2,0,0.2c0,0.3,0.1,0.6,0.4,0.8l0.2,0.2
				l0.2,0.1c0.1,0,0.1,0.1,0.2,0.1c0,0,0.1,0,0.1,0c0,0,0.1,0,0.1,0c0.3,0,0.6-0.1,0.8-0.3c0.2-0.2,0.3-0.5,0.4-0.8
				c0-0.1,0-0.2,0-0.2c0-0.1,0-0.1-0.1-0.2c0-0.1-0.1-0.1-0.1-0.2c0-0.1-0.1-0.1-0.1-0.2C63.4,41.6,63.1,41.4,62.7,41.4L62.7,41.4z"
				/>
		</g>
		<g>
			<path class="st3" d="M37.2,42.4c0,0,0.1,0,0.1,0c0,0,0,0,0,0c0,0,0,0,0,0c0,0,0,0,0,0l0,0l0,0.1c0,0,0,0.1,0,0.1l-0.1,0l-0.1,0
				c-0.1,0-0.1,0-0.1,0c0,0,0,0-0.1-0.1c0,0,0,0,0,0l0-0.1l0-0.1l0,0l0,0c0,0,0,0,0,0C37.1,42.4,37.2,42.4,37.2,42.4 M37.2,41.4
				c-0.3,0-0.6,0.1-0.8,0.3c-0.1,0.1-0.1,0.1-0.1,0.2c0,0.1-0.1,0.1-0.1,0.2c0,0.1-0.1,0.1-0.1,0.2c0,0.1,0,0.2,0,0.2
				c0,0.1,0,0.2,0,0.2c0,0.1,0,0.1,0.1,0.2c0,0.1,0.1,0.1,0.1,0.2c0,0.1,0.1,0.1,0.1,0.2c0.2,0.2,0.5,0.3,0.9,0.4c0.1,0,0.1,0,0.2,0
				c0.1,0,0.2,0,0.2-0.1l0.2-0.1l0.2-0.2c0.2-0.2,0.3-0.5,0.3-0.8c0-0.1,0-0.2,0-0.2c0-0.1,0-0.1-0.1-0.2c0-0.1-0.1-0.1-0.1-0.2
				c0-0.1-0.1-0.1-0.2-0.2C37.8,41.5,37.5,41.4,37.2,41.4L37.2,41.4z"/>
		</g>
	</g>
</g>
<g id="analysis">
	<g>
		<g>
			<path class="st3" d="M24.5,19.8c-0.4,0-0.7,0.3-0.7,0.7v59c0,0.4,0.3,0.7,0.7,0.7c0.4,0,0.7-0.3,0.7-0.7v-59
				C25.2,20.1,24.9,19.8,24.5,19.8L24.5,19.8z"/>
		</g>
		<g>
			<path class="st3" d="M37.3,12.4c-0.2,0-0.5,0.1-0.6,0.4c-0.2,0.3-0.1,0.8,0.3,1L87.6,43c0.1,0.1,0.2,0.1,0.4,0.1h0
				c0.3,0,0.5-0.1,0.6-0.4c0.2-0.3,0.1-0.8-0.3-1L37.6,12.5C37.5,12.5,37.4,12.4,37.3,12.4L37.3,12.4z"/>
		</g>
		<g>
			<path class="st3" d="M37.3,12.4c-0.4,0-0.7,0.3-0.7,0.7v73.8c0,0,0,0,0,0c0,0.4,0.3,0.7,0.7,0.7c0,0,0,0,0,0
				c0.4,0,0.7-0.3,0.7-0.7V13.1C38,12.7,37.7,12.4,37.3,12.4L37.3,12.4z"/>
		</g>
		<g>
			<path class="st3" d="M24.5,19.9c-0.2,0-0.5,0.1-0.6,0.4c-0.2,0.3-0.1,0.8,0.3,1l63.1,36.4c0.1,0.1,0.2,0.1,0.4,0.1
				c0.3,0,0.5-0.2,0.6-0.4c0.2-0.3,0.1-0.8-0.3-1L24.9,20C24.8,19.9,24.7,19.9,24.5,19.9L24.5,19.9z"/>
		</g>
		<g>
			<path class="st3" d="M88.1,56.7c-0.1,0-0.2,0-0.3,0.1L36.9,86.3c-0.2,0.1-0.4,0.4-0.4,0.6c0,0.4,0.3,0.7,0.7,0.7c0,0,0,0,0,0
				c0.1,0,0.2,0,0.3-0.1L88.4,58c0.3-0.2,0.4-0.6,0.3-1C88.6,56.8,88.3,56.7,88.1,56.7L88.1,56.7z"/>
		</g>
		<g>
			<path class="st3" d="M88,42.2c-0.1,0-0.2,0-0.4,0.1L24.2,79c-0.3,0.2-0.4,0.6-0.3,1c0.1,0.2,0.4,0.4,0.6,0.4c0,0,0,0,0,0
				c0,0,0,0,0.1,0c0.1,0,0.2,0,0.3-0.1l63.5-36.6c0.3-0.2,0.5-0.6,0.3-1C88.5,42.4,88.3,42.2,88,42.2L88,42.2z"/>
		</g>
		<g>
			<path class="st3" d="M50,5c-0.1,0-0.2,0-0.4,0.1L11.3,27.2c-0.2,0.1-0.4,0.4-0.4,0.6v44.3c0,0.3,0.1,0.5,0.4,0.6l38.3,22.1
				C49.8,95,49.9,95,50,95c0.1,0,0.3,0,0.4-0.1l38.3-22.1c0.2-0.1,0.4-0.4,0.4-0.6V27.9c0-0.3-0.1-0.5-0.4-0.6L50.4,5.1
				C50.3,5,50.1,5,50,5L50,5z M50,93.4L12.4,71.7V28.3L50,6.6l37.6,21.7v43.4L50,93.4L50,93.4z"/>
		</g>
		<g>
			<g>
				<path class="st3" d="M50,11.9L50,11.9c-0.7,0-1.2,0.5-1.2,1.2c0,0,0,0,0,0c0,0.7,0.5,1.2,1.2,1.2l0,0l0,0c0,0,0,0,0,0
					c0.7,0,1.2-0.6,1.1-1.2C51.2,12.4,50.7,11.9,50,11.9L50,11.9z M50,26.7L50,26.7c-0.7,0-1.2,0.5-1.2,1.2c0,0.7,0.5,1.2,1.2,1.2
					c0.7,0,1.2-0.5,1.2-1.2C51.2,27.2,50.7,26.7,50,26.7L50,26.7z M50,41.4L50,41.4c-0.7,0-1.2,0.5-1.2,1.2c0,0.7,0.5,1.2,1.2,1.2
					c0.7,0,1.2-0.5,1.2-1.2C51.2,42,50.7,41.4,50,41.4L50,41.4z M50,48.8c-0.7,0-1.2,0.5-1.2,1.2s0.5,1.2,1.2,1.2
					c0.7,0,1.2-0.5,1.2-1.2S50.7,48.8,50,48.8L50,48.8z M50,56.2c-0.7,0-1.2,0.5-1.2,1.2s0.5,1.2,1.2,1.2c0.7,0,1.2-0.5,1.2-1.2
					S50.7,56.2,50,56.2L50,56.2z M50,70.9C50,70.9,50,70.9,50,70.9c-0.7,0-1.2,0.6-1.2,1.2c0,0.7,0.5,1.2,1.2,1.2c0,0,0,0,0,0
					c0.7,0,1.2-0.6,1.2-1.2c0,0,0,0,0,0C51.2,71.4,50.7,70.9,50,70.9C50,70.9,50,70.9,50,70.9C50,70.9,50,70.9,50,70.9L50,70.9z
					 M50,85.7c-0.7,0-1.2,0.5-1.2,1.2c0,0.7,0.5,1.2,1.2,1.2c0.7,0,1.2-0.5,1.2-1.2C51.2,86.2,50.7,85.7,50,85.7L50,85.7z"/>
			</g>
			<g>
				<path class="st3" d="M43.7,45.2c-0.3,0-0.6,0.1-0.8,0.3c-0.1,0.1-0.1,0.1-0.2,0.2c0,0.1-0.1,0.1-0.1,0.2c0,0.1-0.1,0.1-0.1,0.2
					c0,0.1,0,0.2,0,0.2c0,0.3,0.1,0.6,0.4,0.8c0.1,0.1,0.1,0.1,0.2,0.2l0.2,0.1c0.1,0,0.2,0.1,0.2,0.1c0,0,0.1,0,0.1,0s0.1,0,0.1,0
					c0,0,0.1,0,0.1,0c0,0,0.1,0,0.1,0c0.1,0,0.2,0,0.2-0.1l0.2-0.1c0.1,0,0.1-0.1,0.2-0.2c0.1-0.1,0.1-0.1,0.2-0.2l0.1-0.2
					c0-0.1,0-0.2,0.1-0.2c0-0.1,0-0.2,0-0.2c0-0.1,0-0.2,0-0.2c0-0.1,0-0.1-0.1-0.2l-0.1-0.2c0-0.1-0.1-0.1-0.2-0.2
					c-0.1-0.1-0.1-0.1-0.2-0.1c-0.1,0-0.1-0.1-0.2-0.1l-0.2-0.1C43.9,45.2,43.8,45.2,43.7,45.2L43.7,45.2z"/>
			</g>
			<g>
				<path class="st3" d="M30.9,37.8c-0.3,0-0.6,0.1-0.8,0.3c-0.1,0.1-0.1,0.1-0.2,0.2c0,0.1-0.1,0.1-0.1,0.2c0,0.1-0.1,0.1-0.1,0.2
					c0,0.1,0,0.2,0,0.2c0,0.3,0.1,0.6,0.4,0.8c0.1,0.1,0.1,0.1,0.2,0.2l0.2,0.1c0.1,0,0.2,0.1,0.2,0.1c0,0,0.1,0,0.1,0s0.1,0,0.1,0
					c0,0,0.1,0,0.1,0c0,0,0.1,0,0.1,0c0.1,0,0.2,0,0.2-0.1l0.2-0.1c0.1,0,0.1-0.1,0.2-0.2c0.1-0.1,0.1-0.1,0.2-0.2l0.1-0.2
					c0-0.1,0-0.2,0.1-0.2c0-0.1,0-0.2,0-0.2c0-0.1,0-0.2,0-0.2c0-0.1,0-0.1-0.1-0.2l-0.1-0.2c0-0.1-0.1-0.1-0.2-0.2
					c-0.1-0.1-0.1-0.1-0.2-0.1c-0.1,0-0.1-0.1-0.2-0.1l-0.2-0.1C31.1,37.8,31,37.8,30.9,37.8L30.9,37.8z"/>
			</g>
			<g>
				<path class="st3" d="M18,30.3c-0.3,0-0.6,0.1-0.8,0.3c-0.1,0.1-0.1,0.1-0.2,0.2c0,0.1-0.1,0.1-0.1,0.2c0,0.1-0.1,0.1-0.1,0.2
					c0,0.1,0,0.2,0,0.2c0,0.3,0.1,0.6,0.4,0.8c0.1,0.1,0.1,0.1,0.2,0.2l0.2,0.1c0.1,0,0.2,0.1,0.2,0.1c0,0,0.1,0,0.1,0s0.1,0,0.1,0
					c0,0,0.1,0,0.1,0c0,0,0.1,0,0.1,0c0.1,0,0.2,0,0.2-0.1l0.2-0.1c0.1,0,0.1-0.1,0.2-0.2c0.1-0.1,0.1-0.1,0.2-0.2l0.1-0.2
					c0-0.1,0-0.2,0.1-0.2c0-0.1,0-0.2,0-0.2c0-0.1,0-0.2,0-0.2c0-0.1,0-0.1-0.1-0.2L19,30.8c0-0.1-0.1-0.1-0.2-0.2
					c-0.1-0.1-0.1-0.1-0.2-0.1c-0.1,0-0.1-0.1-0.2-0.1l-0.2-0.1C18.1,30.3,18.1,30.3,18,30.3L18,30.3z"/>
			</g>
			<g>
				<path class="st3" d="M56.4,52.5c-0.3,0-0.6,0.1-0.8,0.3c-0.1,0.1-0.1,0.1-0.2,0.2c0,0.1-0.1,0.1-0.1,0.2c0,0.1-0.1,0.1-0.1,0.2
					c0,0.1,0,0.2,0,0.2c0,0.3,0.1,0.6,0.4,0.8c0.1,0.1,0.1,0.1,0.2,0.2l0.2,0.1c0.1,0,0.2,0.1,0.2,0.1c0,0,0.1,0,0.1,0
					c0,0,0.1,0,0.1,0c0,0,0.1,0,0.1,0c0,0,0.1,0,0.1,0c0.1,0,0.2,0,0.2-0.1l0.2-0.1c0.1,0,0.1-0.1,0.2-0.2c0.1-0.1,0.1-0.1,0.2-0.2
					l0.1-0.2c0-0.1,0-0.2,0.1-0.2c0-0.1,0-0.2,0-0.2c0-0.1,0-0.2,0-0.2c0-0.1,0-0.1-0.1-0.2l-0.1-0.2c0-0.1-0.1-0.1-0.2-0.2
					c-0.1-0.1-0.1-0.1-0.2-0.1c-0.1,0-0.1-0.1-0.2-0.1l-0.2-0.1C56.6,52.5,56.5,52.5,56.4,52.5L56.4,52.5z"/>
			</g>
			<g>
				<path class="st3" d="M69.1,59.8c-0.3,0-0.6,0.1-0.8,0.3c-0.1,0.1-0.1,0.1-0.2,0.2c0,0.1-0.1,0.1-0.1,0.2c0,0.1-0.1,0.1-0.1,0.2
					c0,0.1,0,0.2,0,0.2c0,0.3,0.1,0.6,0.4,0.8c0.1,0.1,0.1,0.1,0.2,0.2l0.2,0.1c0.1,0,0.2,0.1,0.2,0.1c0,0,0.1,0,0.1,0
					c0,0,0.1,0,0.1,0c0,0,0.1,0,0.1,0c0,0,0.1,0,0.1,0c0.1,0,0.2,0,0.2-0.1l0.2-0.1c0.1,0,0.1-0.1,0.2-0.2c0.1-0.1,0.1-0.1,0.2-0.2
					l0.1-0.2c0-0.1,0-0.2,0.1-0.2c0-0.1,0-0.2,0-0.2c0-0.1,0-0.2,0-0.2c0-0.1,0-0.1-0.1-0.2l-0.1-0.2c0-0.1-0.1-0.1-0.2-0.2
					c-0.1-0.1-0.1-0.1-0.2-0.1c-0.1,0-0.1-0.1-0.2-0.1l-0.2-0.1C69.2,59.8,69.1,59.8,69.1,59.8L69.1,59.8z"/>
			</g>
			<g>
				<path class="st3" d="M82,67.3c-0.3,0-0.6,0.1-0.8,0.3c-0.1,0.1-0.1,0.1-0.2,0.2c0,0.1-0.1,0.1-0.1,0.2c0,0.1-0.1,0.1-0.1,0.2
					c0,0.1,0,0.2,0,0.2c0,0.3,0.1,0.6,0.4,0.8c0.1,0.1,0.1,0.1,0.2,0.2l0.2,0.1c0.1,0,0.2,0.1,0.2,0.1c0,0,0.1,0,0.1,0
					c0,0,0.1,0,0.1,0c0,0,0.1,0,0.1,0c0,0,0.1,0,0.1,0c0.1,0,0.2,0,0.2-0.1l0.2-0.1c0.1,0,0.1-0.1,0.2-0.2c0.1-0.1,0.1-0.1,0.2-0.2
					l0.1-0.2c0-0.1,0-0.2,0.1-0.2c0-0.1,0-0.2,0-0.2c0-0.1,0-0.2,0-0.2c0-0.1,0-0.1-0.1-0.2L83,67.8c0-0.1-0.1-0.1-0.2-0.2
					c-0.1-0.1-0.1-0.1-0.2-0.1c-0.1,0-0.1-0.1-0.2-0.1l-0.2-0.1C82.1,67.3,82.1,67.3,82,67.3L82,67.3z"/>
			</g>
			<g>
				<path class="st3" d="M50,41.5c-0.3,0-0.6,0.1-0.8,0.3C49.1,41.9,49,41.9,49,42c0,0.1-0.1,0.1-0.1,0.2c0,0.1-0.1,0.1-0.1,0.2
					c0,0.1,0,0.2,0,0.2c0,0.3,0.1,0.6,0.4,0.8c0.1,0.1,0.1,0.1,0.2,0.2l0.2,0.1c0.1,0,0.2,0.1,0.2,0.1c0,0,0.1,0,0.1,0
					c0,0,0.1,0,0.1,0c0,0,0.1,0,0.1,0c0,0,0.1,0,0.1,0c0.1,0,0.2,0,0.2-0.1l0.2-0.1c0.1,0,0.1-0.1,0.2-0.2c0.1-0.1,0.1-0.1,0.2-0.2
					l0.1-0.2c0-0.1,0-0.2,0.1-0.2c0-0.1,0-0.2,0-0.2c0-0.1,0-0.2,0-0.2c0-0.1,0-0.1-0.1-0.2L51,42c0-0.1-0.1-0.1-0.2-0.2
					c-0.1-0.1-0.1-0.1-0.2-0.1c-0.1,0-0.1-0.1-0.2-0.1l-0.2-0.1C50.2,41.5,50.1,41.5,50,41.5L50,41.5z"/>
			</g>
			<g>
				<path class="st3" d="M43.7,52.5c-0.3,0-0.6,0.1-0.8,0.3c-0.1,0.1-0.1,0.1-0.2,0.2c0,0.1-0.1,0.1-0.1,0.2c0,0.1-0.1,0.1-0.1,0.2
					c0,0.1,0,0.2,0,0.2c0,0.3,0.1,0.6,0.4,0.8c0.1,0.1,0.1,0.1,0.2,0.2l0.2,0.1c0.1,0,0.2,0.1,0.2,0.1c0,0,0.1,0,0.1,0s0.1,0,0.1,0
					c0,0,0.1,0,0.1,0c0,0,0.1,0,0.1,0c0.1,0,0.2,0,0.2-0.1l0.2-0.1c0.1,0,0.1-0.1,0.2-0.2c0.1-0.1,0.1-0.1,0.2-0.2l0.1-0.2
					c0-0.1,0-0.2,0.1-0.2c0-0.1,0-0.2,0-0.2c0-0.1,0-0.2,0-0.2c0-0.1,0-0.1-0.1-0.2l-0.1-0.2c0-0.1-0.1-0.1-0.2-0.2
					c-0.1-0.1-0.1-0.1-0.2-0.1c-0.1,0-0.1-0.1-0.2-0.1l-0.2-0.1C43.9,52.5,43.8,52.5,43.7,52.5L43.7,52.5z"/>
			</g>
			<g>
				<path class="st3" d="M50,56.3c-0.3,0-0.6,0.1-0.8,0.3c-0.1,0.1-0.1,0.1-0.2,0.2c0,0.1-0.1,0.1-0.1,0.2c0,0.1-0.1,0.1-0.1,0.2
					c0,0.1,0,0.2,0,0.2c0,0.3,0.1,0.6,0.4,0.8c0.1,0.1,0.1,0.1,0.2,0.2l0.2,0.1c0.1,0,0.2,0.1,0.2,0.1c0,0,0.1,0,0.1,0
					c0,0,0.1,0,0.1,0c0,0,0.1,0,0.1,0c0,0,0.1,0,0.1,0c0.1,0,0.2,0,0.2-0.1l0.2-0.1c0.1,0,0.1-0.1,0.2-0.2c0.1-0.1,0.1-0.1,0.2-0.2
					l0.1-0.2c0-0.1,0-0.2,0.1-0.2c0-0.1,0-0.2,0-0.2c0-0.1,0-0.2,0-0.2c0-0.1,0-0.1-0.1-0.2L51,56.8c0-0.1-0.1-0.1-0.2-0.2
					c-0.1-0.1-0.1-0.1-0.2-0.1c-0.1,0-0.1-0.1-0.2-0.1l-0.2-0.1C50.2,56.3,50.1,56.3,50,56.3L50,56.3z"/>
			</g>
			<g>
				<path class="st3" d="M30.9,59.8c-0.3,0-0.6,0.1-0.8,0.3c-0.1,0.1-0.1,0.1-0.2,0.2c0,0.1-0.1,0.1-0.1,0.2c0,0.1-0.1,0.1-0.1,0.2
					c0,0.1,0,0.2,0,0.2c0,0.3,0.1,0.6,0.4,0.8c0.1,0.1,0.1,0.1,0.2,0.2l0.2,0.1c0.1,0,0.2,0.1,0.2,0.1c0,0,0.1,0,0.1,0s0.1,0,0.1,0
					c0,0,0.1,0,0.1,0c0,0,0.1,0,0.1,0c0.1,0,0.2,0,0.2-0.1l0.2-0.1c0.1,0,0.1-0.1,0.2-0.2c0.1-0.1,0.1-0.1,0.2-0.2l0.1-0.2
					c0-0.1,0-0.2,0.1-0.2c0-0.1,0-0.2,0-0.2c0-0.1,0-0.2,0-0.2c0-0.1,0-0.1-0.1-0.2l-0.1-0.2c0-0.1-0.1-0.1-0.2-0.2
					c-0.1-0.1-0.1-0.1-0.2-0.1c-0.1,0-0.1-0.1-0.2-0.1l-0.2-0.1C31.1,59.8,31,59.8,30.9,59.8L30.9,59.8z"/>
			</g>
			<g>
				<path class="st3" d="M18,67.3c-0.3,0-0.6,0.1-0.8,0.3c-0.1,0.1-0.1,0.1-0.2,0.2c0,0.1-0.1,0.1-0.1,0.2c0,0.1-0.1,0.1-0.1,0.2
					c0,0.1,0,0.2,0,0.2c0,0.3,0.1,0.6,0.4,0.8c0.1,0.1,0.1,0.1,0.2,0.2l0.2,0.1c0.1,0,0.2,0.1,0.2,0.1c0,0,0.1,0,0.1,0s0.1,0,0.1,0
					c0,0,0.1,0,0.1,0c0,0,0.1,0,0.1,0c0.1,0,0.2,0,0.2-0.1l0.2-0.1c0.1,0,0.1-0.1,0.2-0.2c0.1-0.1,0.1-0.1,0.2-0.2l0.1-0.2
					c0-0.1,0-0.2,0.1-0.2c0-0.1,0-0.2,0-0.2c0-0.1,0-0.2,0-0.2c0-0.1,0-0.1-0.1-0.2L19,67.8c0-0.1-0.1-0.1-0.2-0.2
					c-0.1-0.1-0.1-0.1-0.2-0.1c-0.1,0-0.1-0.1-0.2-0.1l-0.2-0.1C18.1,67.3,18.1,67.3,18,67.3L18,67.3z"/>
			</g>
			<g>
				<path class="st3" d="M50,71c-0.3,0-0.6,0.1-0.8,0.3c-0.1,0.1-0.1,0.1-0.2,0.2c0,0.1-0.1,0.1-0.1,0.2c0,0.1-0.1,0.1-0.1,0.2
					c0,0.1,0,0.2,0,0.2c0,0.3,0.1,0.6,0.4,0.8c0.1,0.1,0.1,0.1,0.2,0.2l0.2,0.1c0.1,0,0.2,0.1,0.2,0.1c0,0,0.1,0,0.1,0s0.1,0,0.1,0
					c0,0,0.1,0,0.1,0c0,0,0.1,0,0.1,0c0.1,0,0.2,0,0.2-0.1l0.2-0.1c0.1,0,0.1-0.1,0.2-0.2c0.1-0.1,0.1-0.1,0.2-0.2l0.1-0.2
					c0-0.1,0-0.2,0.1-0.2c0-0.1,0-0.2,0-0.2c0-0.1,0-0.2,0-0.2c0-0.1,0-0.1-0.1-0.2L51,71.5c0-0.1-0.1-0.1-0.2-0.2
					c-0.1-0.1-0.1-0.1-0.2-0.1c-0.1,0-0.1-0.1-0.2-0.1L50.2,71C50.1,71,50.1,71,50,71L50,71z"/>
			</g>
			<g>
				<path class="st3" d="M69.3,37.8c-0.3,0-0.6,0.1-0.8,0.3c-0.1,0.1-0.1,0.1-0.2,0.2c0,0.1-0.1,0.1-0.1,0.2c0,0.1-0.1,0.1-0.1,0.2
					c0,0.1,0,0.2,0,0.2c0,0.3,0.1,0.6,0.4,0.8c0.1,0.1,0.1,0.1,0.2,0.2l0.2,0.1c0.1,0,0.2,0.1,0.2,0.1c0,0,0.1,0,0.1,0
					c0,0,0.1,0,0.1,0c0,0,0.1,0,0.1,0c0,0,0.1,0,0.1,0c0.1,0,0.2,0,0.2-0.1L70,40c0.1,0,0.1-0.1,0.2-0.2c0.1-0.1,0.1-0.1,0.2-0.2
					l0.1-0.2c0-0.1,0-0.2,0.1-0.2c0-0.1,0-0.2,0-0.2c0-0.1,0-0.2,0-0.2c0-0.1,0-0.1-0.1-0.2l-0.1-0.2c0-0.1-0.1-0.1-0.2-0.2
					C70.1,38.1,70.1,38,70,38c-0.1,0-0.1-0.1-0.2-0.1l-0.2-0.1C69.5,37.8,69.4,37.8,69.3,37.8L69.3,37.8z"/>
			</g>
			<g>
				<path class="st3" d="M82,30.3c-0.3,0-0.6,0.1-0.8,0.3c-0.1,0.1-0.1,0.1-0.2,0.2c0,0.1-0.1,0.1-0.1,0.2c0,0.1-0.1,0.1-0.1,0.2
					c0,0.1,0,0.2,0,0.2c0,0.3,0.1,0.6,0.4,0.8c0.1,0.1,0.1,0.1,0.2,0.2l0.2,0.1c0.1,0,0.2,0.1,0.2,0.1c0,0,0.1,0,0.1,0
					c0,0,0.1,0,0.1,0c0,0,0.1,0,0.1,0c0,0,0.1,0,0.1,0c0.1,0,0.2,0,0.2-0.1l0.2-0.1c0.1,0,0.1-0.1,0.2-0.2c0.1-0.1,0.1-0.1,0.2-0.2
					l0.1-0.2c0-0.1,0-0.2,0.1-0.2c0-0.1,0-0.2,0-0.2c0-0.1,0-0.2,0-0.2c0-0.1,0-0.1-0.1-0.2L83,30.8c0-0.1-0.1-0.1-0.2-0.2
					c-0.1-0.1-0.1-0.1-0.2-0.1c-0.1,0-0.1-0.1-0.2-0.1l-0.2-0.1C82.1,30.3,82.1,30.3,82,30.3L82,30.3z"/>
			</g>
			<g>
				<path class="st3" d="M50,85.7c-0.3,0-0.6,0.1-0.8,0.3c-0.1,0.1-0.1,0.1-0.2,0.2c0,0.1-0.1,0.1-0.1,0.2c0,0.1-0.1,0.1-0.1,0.2
					c0,0.1,0,0.2,0,0.2c0,0.3,0.1,0.6,0.4,0.8c0.1,0.1,0.1,0.1,0.2,0.2l0.2,0.1c0.1,0,0.2,0.1,0.2,0.1c0,0,0.1,0,0.1,0s0.1,0,0.1,0
					c0,0,0.1,0,0.1,0c0,0,0.1,0,0.1,0c0.1,0,0.2,0,0.2-0.1l0.2-0.1c0.1,0,0.1-0.1,0.2-0.2c0.1-0.1,0.1-0.1,0.2-0.2l0.1-0.2
					c0-0.1,0-0.2,0.1-0.2c0-0.1,0-0.2,0-0.2c0-0.1,0-0.2,0-0.2c0-0.1,0-0.1-0.1-0.2L51,86.2c0-0.1-0.1-0.1-0.2-0.2
					c-0.1-0.1-0.1-0.1-0.2-0.1c-0.1,0-0.1-0.1-0.2-0.1l-0.2-0.1C50.1,85.7,50.1,85.7,50,85.7L50,85.7z"/>
			</g>
			<g>
				<path class="st3" d="M56.4,45.2c-0.3,0-0.6,0.1-0.8,0.3c-0.1,0.1-0.1,0.1-0.2,0.2c0,0.1-0.1,0.1-0.1,0.2c0,0.1-0.1,0.1-0.1,0.2
					c0,0.1,0,0.2,0,0.2c0,0.3,0.1,0.6,0.4,0.8c0.1,0.1,0.1,0.1,0.2,0.2l0.2,0.1c0.1,0,0.2,0.1,0.2,0.1c0,0,0.1,0,0.1,0
					c0,0,0.1,0,0.1,0c0,0,0.1,0,0.1,0c0,0,0.1,0,0.1,0c0.1,0,0.2,0,0.2-0.1l0.2-0.1c0.1,0,0.1-0.1,0.2-0.2c0.1-0.1,0.1-0.1,0.2-0.2
					l0.1-0.2c0-0.1,0-0.2,0.1-0.2c0-0.1,0-0.2,0-0.2c0-0.1,0-0.2,0-0.2c0-0.1,0-0.1-0.1-0.2l-0.1-0.2c0-0.1-0.1-0.1-0.2-0.2
					c-0.1-0.1-0.1-0.1-0.2-0.1c-0.1,0-0.1-0.1-0.2-0.1l-0.2-0.1C56.6,45.2,56.5,45.2,56.4,45.2L56.4,45.2z"/>
			</g>
		</g>
	</g>
</g>
</svg>
