<?xml version="1.0" encoding="utf-8"?>
<!-- Generator: Adobe Illustrator 26.0.1, SVG Export Plug-In . SVG Version: 6.00 Build 0)  -->
<svg version="1.1" id="Layer_1" xmlns="http://www.w3.org/2000/svg" xmlns:xlink="http://www.w3.org/1999/xlink" x="0px" y="0px"
	 viewBox="0 0 71.3 58.7" style="enable-background:new 0 0 71.3 58.7;" xml:space="preserve">
<style type="text/css">
	.st0{fill-rule:evenodd;clip-rule:evenodd;fill:#4d5b68;}
</style>
<g>
	<g>
		<g>
			<path class="st0" d="M68.3,25c-11,11-21.9,21.9-32.9,32.9c-3.8,0-7.6,0-11.4,0c0-3.7,0-7.3,0-11c12.2-12.1,24.4-24.3,36.7-36.6
				C64.9,14.3,67.2,19.4,68.3,25z"/>
			<path class="st0" d="M25.2,16.3c5-5,10-10,15.1-15C48,0.8,54.9,3.1,61.1,7.9c-12,12-23.9,23.9-35.9,35.8
				C25.2,34.7,25.2,25.5,25.2,16.3z"/>
			<path class="st0" d="M2.2,56.7c0-5.8,0-11.6,0-17.3c6.3-6.3,12.6-12.6,18.9-18.9c0,9.1,0,18.1,0,27.2c-3,3-6,6-9,9
				C8.9,56.7,5.6,56.7,2.2,56.7z"/>
			<path class="st0" d="M38,57.2c10.5-10.5,21-21,31.5-31.4c0.1,0.5,0.1,1.1,0.2,1.6c0.6,6.4-0.7,12.4-4,17.9
				c-1.4,2.4-3.2,4.3-5.5,5.9c-4.3,3-9.1,4.9-14.3,5.8c-0.9,0.1-1.9,0.2-2.8,0.2c-1.5,0-3,0-4.5,0C38.4,57.2,38.2,57.2,38,57.2z"/>
			<path class="st0" d="M20.1,19.8C13.8,26.1,7.5,32.4,1.2,38.7c0-5.1,0-10.3,0-15.4C7.5,17,13.8,10.7,20.1,4.4
				C20.1,9.5,20.1,14.7,20.1,19.8z"/>
			<path class="st0" d="M20.6,2.1C14.3,8.4,8,14.7,1.7,20.9v-0.1c0-2.1-0.1-4.3,0-6.4c0.1-2.5,1.2-4.7,2.8-6.6
				c2.1-2.5,4.8-4.1,8-4.9c2.6-0.7,5.2-1,7.8-0.9C20.4,2,20.5,2.1,20.6,2.1L20.6,2.1z"/>
			<path class="st0" d="M24.3,15.2c0-0.5,0.1-1,0.1-1.5c0.5-3.4,2.2-6,4.8-8.1c2.1-1.7,4.6-2.7,7.2-3.3c0.3-0.1,0.7-0.1,1-0.2
				l0.1,0.1C33.1,6.5,28.8,10.9,24.3,15.2C24.4,15.2,24.4,15.2,24.3,15.2z"/>
			<path class="st0" d="M20.4,57.4c-2.5,0-4.9,0-7.2,0c2.4-2.4,4.8-4.8,7.2-7.2C20.4,52.5,20.4,54.9,20.4,57.4z"/>
		</g>
	</g>
</g>
</svg>
