<svg width="448" height="512" xmlns="http://www.w3.org/2000/svg" role="img" class="svg-inline--fa fa-arrow-right fa-w-14" data-icon="arrow-right" data-prefix="fal" focusable="false" aria-hidden="true">

 <g>
  <title>Layer 1</title>
  <path id="svg_1" d="m216.464,36.465l-7.071,7.07c-4.686,4.686 -4.686,12.284 0,16.971l178.49399,178.494l-375.88699,0c-6.627,0 -12,5.373 -12,12l0,10c0,6.62701 5.373,12 12,12l375.88699,0l-178.49399,178.49399c-4.68599,4.686 -4.68599,12.284 0,16.97101l7.071,7.07001c4.686,4.68597 12.28401,4.68597 16.97,0l211.05098,-211.05002c4.686,-4.686 4.686,-12.284 0,-16.97099l-211.05098,-211.04899c-4.68599,-4.687 -12.284,-4.687 -16.97,0z" fill="#f58810"/>
 </g>
</svg>