<svg width="448" height="512" xmlns="http://www.w3.org/2000/svg" role="img" class="svg-inline--fa fa-arrow-left fa-w-14" data-icon="arrow-left" data-prefix="fal" focusable="false" aria-hidden="true">

 <g>
  <title>Layer 1</title>
  <path id="svg_1" d="m231.536,475.535l7.071,-7.07001c4.686,-4.686 4.686,-12.284 0,-16.97101l-178.494,-178.49399l375.887,0c6.62701,0 12,-5.37299 12,-12l0,-10c0,-6.627 -5.37299,-12 -12,-12l-375.887,0l178.494,-178.494c4.68599,-4.686 4.68599,-12.284 0,-16.971l-7.071,-7.07c-4.686,-4.686 -12.28401,-4.686 -16.97,0l-211.05099,211.05c-4.686,4.686 -4.686,12.28401 0,16.97099l211.05099,211.05002c4.68599,4.68597 12.28401,4.68597 16.97,-0.00101z" fill="#f58810"/>
 </g>
</svg>