<svg 
 xmlns="http://www.w3.org/2000/svg"
 xmlns:xlink="http://www.w3.org/1999/xlink"
 width="1165px" height="5px">
<path fill-rule="evenodd"  fill="rgb(40, 53, 66)"
 d="M1163.124,3.124 L1163.124,4.999 L1161.874,4.999 L1161.874,3.124 L1159.999,3.124 L1159.999,1.874 L1161.874,1.874 L1161.874,0.0 L1163.124,0.0 L1163.124,1.874 L1164.999,1.874 L1164.999,3.124 L1163.124,3.124 ZM1143.124,4.999 L1141.874,4.999 L1141.874,3.124 L1139.999,3.124 L1139.999,1.874 L1141.874,1.874 L1141.874,0.0 L1143.124,0.0 L1143.124,1.874 L1144.999,1.874 L1144.999,3.124 L1143.124,3.124 L1143.124,4.999 ZM1123.124,4.999 L1121.874,4.999 L1121.874,3.124 L1119.999,3.124 L1119.999,1.874 L1121.874,1.874 L1121.874,0.0 L1123.124,0.0 L1123.124,1.874 L1124.999,1.874 L1124.999,3.124 L1123.124,3.124 L1123.124,4.999 ZM1103.124,4.999 L1101.874,4.999 L1101.874,3.124 L1099.999,3.124 L1099.999,1.874 L1101.874,1.874 L1101.874,0.0 L1103.124,0.0 L1103.124,1.874 L1104.999,1.874 L1104.999,3.124 L1103.124,3.124 L1103.124,4.999 ZM1083.124,4.999 L1081.874,4.999 L1081.874,3.124 L1079.999,3.124 L1079.999,1.874 L1081.874,1.874 L1081.874,0.0 L1083.124,0.0 L1083.124,1.874 L1084.999,1.874 L1084.999,3.124 L1083.124,3.124 L1083.124,4.999 ZM1063.124,4.999 L1061.874,4.999 L1061.874,3.124 L1059.999,3.124 L1059.999,1.874 L1061.874,1.874 L1061.874,0.0 L1063.124,0.0 L1063.124,1.874 L1064.999,1.874 L1064.999,3.124 L1063.124,3.124 L1063.124,4.999 ZM1043.124,4.999 L1041.874,4.999 L1041.874,3.124 L1039.999,3.124 L1039.999,1.874 L1041.874,1.874 L1041.874,0.0 L1043.124,0.0 L1043.124,1.874 L1044.999,1.874 L1044.999,3.124 L1043.124,3.124 L1043.124,4.999 ZM1023.124,4.999 L1021.874,4.999 L1021.874,3.124 L1019.999,3.124 L1019.999,1.874 L1021.874,1.874 L1021.874,0.0 L1023.124,0.0 L1023.124,1.874 L1024.999,1.874 L1024.999,3.124 L1023.124,3.124 L1023.124,4.999 ZM1003.124,4.999 L1001.874,4.999 L1001.874,3.124 L999.999,3.124 L999.999,1.874 L1001.874,1.874 L1001.874,0.0 L1003.124,0.0 L1003.124,1.874 L1004.999,1.874 L1004.999,3.124 L1003.124,3.124 L1003.124,4.999 ZM983.124,4.999 L981.874,4.999 L981.874,3.124 L979.999,3.124 L979.999,1.874 L981.874,1.874 L981.874,0.0 L983.124,0.0 L983.124,1.874 L984.999,1.874 L984.999,3.124 L983.124,3.124 L983.124,4.999 ZM963.124,4.999 L961.874,4.999 L961.874,3.124 L959.999,3.124 L959.999,1.874 L961.874,1.874 L961.874,0.0 L963.124,0.0 L963.124,1.874 L964.999,1.874 L964.999,3.124 L963.124,3.124 L963.124,4.999 ZM943.125,4.999 L941.874,4.999 L941.874,3.124 L939.999,3.124 L939.999,1.874 L941.874,1.874 L941.874,0.0 L943.125,0.0 L943.125,1.874 L945.0,1.874 L945.0,3.124 L943.125,3.124 L943.125,4.999 ZM923.124,4.999 L921.874,4.999 L921.874,3.124 L919.999,3.124 L919.999,1.874 L921.874,1.874 L921.874,0.0 L923.124,0.0 L923.124,1.874 L924.999,1.874 L924.999,3.124 L923.124,3.124 L923.124,4.999 ZM903.124,4.999 L901.875,4.999 L901.875,3.124 L900.0,3.124 L900.0,1.874 L901.875,1.874 L901.875,0.0 L903.124,0.0 L903.124,1.874 L904.999,1.874 L904.999,3.124 L903.124,3.124 L903.124,4.999 ZM883.125,4.999 L881.874,4.999 L881.874,3.124 L879.999,3.124 L879.999,1.874 L881.874,1.874 L881.874,0.0 L883.125,0.0 L883.125,1.874 L885.0,1.874 L885.0,3.124 L883.125,3.124 L883.125,4.999 ZM863.124,4.999 L861.874,4.999 L861.874,3.124 L859.999,3.124 L859.999,1.874 L861.874,1.874 L861.874,0.0 L863.124,0.0 L863.124,1.874 L864.999,1.874 L864.999,3.124 L863.124,3.124 L863.124,4.999 ZM843.124,4.999 L841.874,4.999 L841.874,3.124 L839.999,3.124 L839.999,1.874 L841.874,1.874 L841.874,0.0 L843.124,0.0 L843.124,1.874 L844.999,1.874 L844.999,3.124 L843.124,3.124 L843.124,4.999 ZM823.124,4.999 L821.874,4.999 L821.874,3.124 L819.999,3.124 L819.999,1.874 L821.874,1.874 L821.874,0.0 L823.124,0.0 L823.124,1.874 L824.999,1.874 L824.999,3.124 L823.124,3.124 L823.124,4.999 ZM803.124,4.999 L801.874,4.999 L801.874,3.124 L799.999,3.124 L799.999,1.874 L801.874,1.874 L801.874,0.0 L803.124,0.0 L803.124,1.874 L804.999,1.874 L804.999,3.124 L803.124,3.124 L803.124,4.999 ZM783.124,4.999 L781.874,4.999 L781.874,3.124 L779.999,3.124 L779.999,1.874 L781.874,1.874 L781.874,0.0 L783.124,0.0 L783.124,1.874 L784.999,1.874 L784.999,3.124 L783.124,3.124 L783.124,4.999 ZM763.124,4.999 L761.874,4.999 L761.874,3.124 L759.999,3.124 L759.999,1.874 L761.874,1.874 L761.874,0.0 L763.124,0.0 L763.124,1.874 L764.999,1.874 L764.999,3.124 L763.124,3.124 L763.124,4.999 ZM743.124,4.999 L741.874,4.999 L741.874,3.124 L739.999,3.124 L739.999,1.874 L741.874,1.874 L741.874,0.0 L743.124,0.0 L743.124,1.874 L744.999,1.874 L744.999,3.124 L743.124,3.124 L743.124,4.999 ZM723.124,4.999 L721.874,4.999 L721.874,3.124 L719.999,3.124 L719.999,1.874 L721.874,1.874 L721.874,0.0 L723.124,0.0 L723.124,1.874 L724.999,1.874 L724.999,3.124 L723.124,3.124 L723.124,4.999 ZM703.124,4.999 L701.874,4.999 L701.874,3.124 L699.999,3.124 L699.999,1.874 L701.874,1.874 L701.874,0.0 L703.124,0.0 L703.124,1.874 L704.999,1.874 L704.999,3.124 L703.124,3.124 L703.124,4.999 ZM683.124,4.999 L681.874,4.999 L681.874,3.124 L679.999,3.124 L679.999,1.874 L681.874,1.874 L681.874,0.0 L683.124,0.0 L683.124,1.874 L684.999,1.874 L684.999,3.124 L683.124,3.124 L683.124,4.999 ZM663.124,4.999 L661.875,4.999 L661.875,3.124 L660.0,3.124 L660.0,1.874 L661.875,1.874 L661.875,0.0 L663.124,0.0 L663.124,1.874 L664.999,1.874 L664.999,3.124 L663.124,3.124 L663.124,4.999 ZM643.125,4.999 L641.874,4.999 L641.874,3.124 L639.999,3.124 L639.999,1.874 L641.874,1.874 L641.874,0.0 L643.125,0.0 L643.125,1.874 L645.0,1.874 L645.0,3.124 L643.125,3.124 L643.125,4.999 ZM623.124,4.999 L621.874,4.999 L621.874,3.124 L619.999,3.124 L619.999,1.874 L621.874,1.874 L621.874,0.0 L623.124,0.0 L623.124,1.874 L624.999,1.874 L624.999,3.124 L623.124,3.124 L623.124,4.999 ZM603.124,4.999 L601.875,4.999 L601.875,3.124 L600.0,3.124 L600.0,1.874 L601.875,1.874 L601.875,0.0 L603.124,0.0 L603.124,1.874 L604.999,1.874 L604.999,3.124 L603.124,3.124 L603.124,4.999 ZM583.125,4.999 L581.874,4.999 L581.874,3.124 L579.999,3.124 L579.999,1.874 L581.874,1.874 L581.874,0.0 L583.125,0.0 L583.125,1.874 L585.0,1.874 L585.0,3.124 L583.125,3.124 L583.125,4.999 ZM563.124,4.999 L561.874,4.999 L561.874,3.124 L559.999,3.124 L559.999,1.874 L561.874,1.874 L561.874,0.0 L563.124,0.0 L563.124,1.874 L564.999,1.874 L564.999,3.124 L563.124,3.124 L563.124,4.999 ZM543.124,4.999 L541.874,4.999 L541.874,3.124 L539.999,3.124 L539.999,1.874 L541.874,1.874 L541.874,0.0 L543.124,0.0 L543.124,1.874 L544.999,1.874 L544.999,3.124 L543.124,3.124 L543.124,4.999 ZM523.124,4.999 L521.874,4.999 L521.874,3.124 L519.999,3.124 L519.999,1.874 L521.874,1.874 L521.874,0.0 L523.124,0.0 L523.124,1.874 L524.999,1.874 L524.999,3.124 L523.124,3.124 L523.124,4.999 ZM503.124,4.999 L501.874,4.999 L501.874,3.124 L499.999,3.124 L499.999,1.874 L501.874,1.874 L501.874,0.0 L503.124,0.0 L503.124,1.874 L504.999,1.874 L504.999,3.124 L503.124,3.124 L503.124,4.999 ZM483.124,4.999 L481.874,4.999 L481.874,3.124 L479.999,3.124 L479.999,1.874 L481.874,1.874 L481.874,0.0 L483.124,0.0 L483.124,1.874 L484.999,1.874 L484.999,3.124 L483.124,3.124 L483.124,4.999 ZM463.124,4.999 L461.874,4.999 L461.874,3.124 L459.999,3.124 L459.999,1.874 L461.874,1.874 L461.874,0.0 L463.124,0.0 L463.124,1.874 L464.999,1.874 L464.999,3.124 L463.124,3.124 L463.124,4.999 ZM443.124,4.999 L441.874,4.999 L441.874,3.124 L439.999,3.124 L439.999,1.874 L441.874,1.874 L441.874,0.0 L443.124,0.0 L443.124,1.874 L444.999,1.874 L444.999,3.124 L443.124,3.124 L443.124,4.999 ZM423.124,4.999 L421.875,4.999 L421.875,3.124 L420.0,3.124 L420.0,1.874 L421.875,1.874 L421.875,0.0 L423.124,0.0 L423.124,1.874 L424.999,1.874 L424.999,3.124 L423.124,3.124 L423.124,4.999 ZM403.125,4.999 L401.874,4.999 L401.874,3.124 L399.999,3.124 L399.999,1.874 L401.874,1.874 L401.874,0.0 L403.125,0.0 L403.125,1.874 L405.0,1.874 L405.0,3.124 L403.125,3.124 L403.125,4.999 ZM383.124,4.999 L381.874,4.999 L381.874,3.124 L379.999,3.124 L379.999,1.874 L381.874,1.874 L381.874,0.0 L383.124,0.0 L383.124,1.874 L384.999,1.874 L384.999,3.124 L383.124,3.124 L383.124,4.999 ZM363.124,4.999 L361.875,4.999 L361.875,3.124 L360.0,3.124 L360.0,1.874 L361.875,1.874 L361.875,0.0 L363.124,0.0 L363.124,1.874 L364.999,1.874 L364.999,3.124 L363.124,3.124 L363.124,4.999 ZM343.125,4.999 L341.874,4.999 L341.874,3.124 L339.999,3.124 L339.999,1.874 L341.874,1.874 L341.874,0.0 L343.125,0.0 L343.125,1.874 L345.0,1.874 L345.0,3.124 L343.125,3.124 L343.125,4.999 ZM323.124,4.999 L321.874,4.999 L321.874,3.124 L319.999,3.124 L319.999,1.874 L321.874,1.874 L321.874,0.0 L323.124,0.0 L323.124,1.874 L324.999,1.874 L324.999,3.124 L323.124,3.124 L323.124,4.999 ZM303.124,4.999 L301.875,4.999 L301.875,3.124 L300.0,3.124 L300.0,1.874 L301.875,1.874 L301.875,0.0 L303.124,0.0 L303.124,1.874 L304.999,1.874 L304.999,3.124 L303.124,3.124 L303.124,4.999 ZM283.125,4.999 L281.874,4.999 L281.874,3.124 L279.999,3.124 L279.999,1.874 L281.874,1.874 L281.874,0.0 L283.125,0.0 L283.125,1.874 L285.0,1.874 L285.0,3.124 L283.125,3.124 L283.125,4.999 ZM263.124,4.999 L261.874,4.999 L261.874,3.124 L259.999,3.124 L259.999,1.874 L261.874,1.874 L261.874,0.0 L263.124,0.0 L263.124,1.874 L264.999,1.874 L264.999,3.124 L263.124,3.124 L263.124,4.999 ZM243.124,4.999 L241.874,4.999 L241.874,3.124 L239.999,3.124 L239.999,1.874 L241.874,1.874 L241.874,0.0 L243.124,0.0 L243.124,1.874 L244.999,1.874 L244.999,3.124 L243.124,3.124 L243.124,4.999 ZM223.124,4.999 L221.874,4.999 L221.874,3.124 L219.999,3.124 L219.999,1.874 L221.874,1.874 L221.874,0.0 L223.124,0.0 L223.124,1.874 L224.999,1.874 L224.999,3.124 L223.124,3.124 L223.124,4.999 ZM203.124,4.999 L201.874,4.999 L201.874,3.124 L199.999,3.124 L199.999,1.874 L201.874,1.874 L201.874,0.0 L203.124,0.0 L203.124,1.874 L204.999,1.874 L204.999,3.124 L203.124,3.124 L203.124,4.999 ZM183.124,4.999 L181.874,4.999 L181.874,3.124 L179.999,3.124 L179.999,1.874 L181.874,1.874 L181.874,0.0 L183.124,0.0 L183.124,1.874 L184.999,1.874 L184.999,3.124 L183.124,3.124 L183.124,4.999 ZM163.125,4.999 L161.874,4.999 L161.874,3.124 L159.999,3.124 L159.999,1.874 L161.874,1.874 L161.874,0.0 L163.125,0.0 L163.125,1.874 L165.0,1.874 L165.0,3.124 L163.125,3.124 L163.125,4.999 ZM143.124,4.999 L141.874,4.999 L141.874,3.124 L139.999,3.124 L139.999,1.874 L141.874,1.874 L141.874,0.0 L143.124,0.0 L143.124,1.874 L144.999,1.874 L144.999,3.124 L143.124,3.124 L143.124,4.999 ZM123.124,4.999 L121.875,4.999 L121.875,3.124 L120.0,3.124 L120.0,1.874 L121.875,1.874 L121.875,0.0 L123.124,0.0 L123.124,1.874 L124.999,1.874 L124.999,3.124 L123.124,3.124 L123.124,4.999 ZM103.125,4.999 L101.874,4.999 L101.874,3.124 L99.999,3.124 L99.999,1.874 L101.874,1.874 L101.874,0.0 L103.125,0.0 L103.125,1.874 L105.0,1.874 L105.0,3.124 L103.125,3.124 L103.125,4.999 ZM83.124,4.999 L81.874,4.999 L81.874,3.124 L79.999,3.124 L79.999,1.874 L81.874,1.874 L81.874,0.0 L83.124,0.0 L83.124,1.874 L84.999,1.874 L84.999,3.124 L83.124,3.124 L83.124,4.999 ZM63.124,4.999 L61.875,4.999 L61.875,3.124 L60.0,3.124 L60.0,1.874 L61.875,1.874 L61.875,0.0 L63.124,0.0 L63.124,1.874 L64.999,1.874 L64.999,3.124 L63.124,3.124 L63.124,4.999 ZM43.125,4.999 L41.874,4.999 L41.874,3.124 L39.999,3.124 L39.999,1.874 L41.874,1.874 L41.874,0.0 L43.125,0.0 L43.125,1.874 L45.0,1.874 L45.0,3.124 L43.125,3.124 L43.125,4.999 ZM23.124,4.999 L21.874,4.999 L21.874,3.124 L19.999,3.124 L19.999,1.874 L21.874,1.874 L21.874,0.0 L23.124,0.0 L23.124,1.874 L24.999,1.874 L24.999,3.124 L23.124,3.124 L23.124,4.999 ZM3.124,4.999 L1.875,4.999 L1.875,3.124 L0.0,3.124 L0.0,1.874 L1.875,1.874 L1.875,0.0 L3.124,0.0 L3.124,1.874 L4.999,1.874 L4.999,3.124 L3.124,3.124 L3.124,4.999 Z"/>
</svg>