<svg 
 xmlns="http://www.w3.org/2000/svg"
 xmlns:xlink="http://www.w3.org/1999/xlink"
 width="77px" height="27px">
<path fill-rule="evenodd"  fill="rgb(238, 60, 40)"
 d="M59.721,23.383 L76.795,23.383 L76.795,26.959 L59.721,26.959 L59.721,23.383 Z"/>
<path fill-rule="evenodd"  fill="rgb(255, 255, 255)"
 d="M49.211,23.383 L46.913,17.200 L36.494,17.200 L34.196,23.383 L30.67,23.383 L38.706,0.74 L44.697,0.74 L53.336,23.383 L49.211,23.383 ZM41.686,3.190 L37.799,13.652 L45.574,13.652 L41.686,3.190 ZM21.602,7.914 L15.658,23.906 L13.844,23.906 L11.529,23.906 L9.715,23.906 L3.771,7.914 L3.771,23.906 L0.203,23.906 L0.203,0.595 L5.184,0.595 L12.686,20.790 L20.189,0.595 L25.170,0.595 L25.170,23.906 L21.602,23.906 L21.602,7.914 Z"/>
</svg>