<?xml version="1.0" encoding="utf-8"?>
<!-- Generator: Adobe Illustrator 26.3.1, SVG Export Plug-In . SVG Version: 6.00 Build 0)  -->
<svg version="1.1" xmlns="http://www.w3.org/2000/svg" xmlns:xlink="http://www.w3.org/1999/xlink" x="0px" y="0px" width="165px"
	 height="77.4px" viewBox="0 0 165 77.4" style="enable-background:new 0 0 165 77.4;" xml:space="preserve">
<style type="text/css">
	.st0{fill-rule:evenodd;clip-rule:evenodd;fill:#ee3e2b;}
	.st1{enable-background:new    ;}
	.st2{fill:#FFFFFF;}
</style>
<g id="Layer_1">
	<path class="st0" d="M147.7,54.4h17.1V58h-17.1V54.4z"/>
	<g class="st1">
		<path class="st2" d="M70.1,75.7l2.5-6.6h0.8l2.5,6.6h-0.8l-1.6-4.3c0-0.1-0.1-0.3-0.1-0.4s-0.1-0.3-0.2-0.5S73.1,70.2,73,70
			c0-0.2-0.1-0.3-0.1-0.4h0.2c0,0.1-0.1,0.3-0.1,0.5c0,0.1-0.1,0.3-0.2,0.5c-0.1,0.1-0.1,0.3-0.2,0.5c-0.1,0.1-0.1,0.3-0.2,0.5
			l-1.6,4.2L70.1,75.7L70.1,75.7z M71.2,73.8l0.3-0.7h3.1l0.3,0.7H71.2z"/>
		<path class="st2" d="M77.2,75.7V69h0.7l4.3,5.7L82,74.9c0-0.1,0-0.3,0-0.4c0-0.2,0-0.4,0-0.7c0-0.3,0-0.5,0-0.8s0-0.5,0-0.8
			s0-0.5,0-0.7V69h0.7v6.6H82L77.6,70l0.1-0.2c0,0.3,0,0.5,0,0.7c0,0.3,0,0.5,0,0.7s0,0.4,0,0.6s0,0.4,0,0.5s0,0.2,0,0.3v3
			L77.2,75.7L77.2,75.7z"/>
		<path class="st2" d="M86.5,75.7l2.5-6.6h0.8l2.5,6.6h-0.8L90,71.4c0-0.1-0.1-0.3-0.1-0.4c0-0.2-0.1-0.3-0.2-0.5s-0.1-0.3-0.2-0.5
			c0-0.2-0.1-0.3-0.1-0.4h0.2c0,0.1-0.1,0.3-0.1,0.5c0,0.1-0.1,0.3-0.2,0.5c-0.1,0.1-0.1,0.3-0.2,0.5c-0.1,0.1-0.1,0.3-0.2,0.5
			l-1.6,4.2L86.5,75.7L86.5,75.7z M87.6,73.8l0.3-0.7H91l0.3,0.7H87.6z"/>
		<path class="st2" d="M93.6,75.7V69h0.7v5.9h3.2v0.7L93.6,75.7L93.6,75.7z"/>
		<path class="st2" d="M99.3,75.7v-5.9h-1.9V69h4.6v0.7h-2v5.9L99.3,75.7L99.3,75.7z"/>
		<path class="st2" d="M103.3,75.7V69h4v0.7H104v5.2h3.2v0.7h-3.9C103.3,75.6,103.3,75.7,103.3,75.7z M103.6,72.6v-0.7h3.1v0.7
			H103.6z"/>
		<path class="st2" d="M108.9,75.7V69h0.7l4.3,5.7l-0.1,0.2c0-0.1,0-0.3,0-0.4c0-0.2,0-0.4,0-0.7c0-0.3,0-0.5,0-0.8s0-0.5,0-0.8
			s0-0.5,0-0.7V69h0.7v6.6h-0.7l-4.3-5.6l0.1-0.2c0,0.3,0,0.5,0,0.7c0,0.3,0,0.5,0,0.7s0,0.4,0,0.6s0,0.4,0,0.5s0,0.2,0,0.3v3
			L108.9,75.7L108.9,75.7z"/>
		<path class="st2" d="M121.7,75.7c-0.5,0-0.9-0.1-1.3-0.3s-0.7-0.4-1-0.7c-0.3-0.3-0.5-0.7-0.7-1.1c-0.1-0.4-0.3-0.9-0.3-1.3
			s0.1-0.9,0.3-1.3c0.1-0.4,0.4-0.8,0.7-1.1c0.3-0.3,0.7-0.5,1-0.7c0.4-0.1,0.8-0.3,1.3-0.3c0.3,0,0.6,0,0.9,0.1s0.6,0.2,0.8,0.4
			c0.3,0.2,0.5,0.4,0.6,0.6l-0.5,0.5c-0.1-0.2-0.3-0.4-0.5-0.5s-0.4-0.3-0.7-0.3c-0.2-0.1-0.4-0.1-0.7-0.1c-0.4,0-0.7,0.1-1,0.2
			s-0.6,0.3-0.8,0.5s-0.4,0.5-0.5,0.8s-0.2,0.7-0.2,1.1s0.1,0.8,0.2,1.1c0.1,0.3,0.3,0.6,0.5,0.8c0.2,0.2,0.5,0.4,0.8,0.5
			s0.7,0.2,1.1,0.2c0.2,0,0.4,0,0.7-0.1s0.4-0.1,0.6-0.3c0.2-0.1,0.4-0.3,0.5-0.4l0.4,0.6c-0.1,0.2-0.3,0.3-0.6,0.5
			s-0.5,0.3-0.8,0.3S122,75.7,121.7,75.7z"/>
		<path class="st2" d="M128.1,75.7c-0.5,0-0.9-0.1-1.3-0.3s-0.7-0.4-1-0.7c-0.3-0.3-0.5-0.7-0.7-1.1s-0.3-0.9-0.3-1.3
			s0.1-0.9,0.3-1.3s0.4-0.8,0.7-1.1c0.3-0.3,0.6-0.5,1-0.7c0.4-0.1,0.8-0.3,1.3-0.3s0.9,0.1,1.3,0.3c0.4,0.2,0.7,0.4,1,0.7
			s0.5,0.7,0.7,1.1c0.1,0.4,0.3,0.9,0.3,1.3c0,0.5-0.1,0.9-0.3,1.3c-0.1,0.4-0.4,0.8-0.7,1.1c-0.3,0.3-0.6,0.5-1,0.7
			C129,75.7,128.5,75.7,128.1,75.7z M128.1,75c0.4,0,0.7-0.1,1-0.2s0.6-0.3,0.8-0.5s0.4-0.5,0.5-0.8s0.2-0.7,0.2-1.1
			s-0.1-0.8-0.2-1.1c-0.1-0.3-0.3-0.6-0.5-0.8c-0.2-0.3-0.5-0.4-0.8-0.5s-0.7-0.2-1-0.2c-0.4,0-0.7,0.1-1,0.2s-0.6,0.3-0.8,0.5
			c-0.2,0.3-0.4,0.5-0.5,0.8s-0.2,0.7-0.2,1.1s0.1,0.7,0.2,1.1s0.3,0.6,0.5,0.8c0.2,0.3,0.5,0.4,0.8,0.5C127.4,75,127.7,75,128.1,75
			z"/>
		<path class="st2" d="M132.8,75.7V69h0.7l2.5,4.1h-0.3l2.6-4.1h0.7v6.6h-0.7v-3c0-0.6,0-1.1,0-1.5s0-0.9,0.1-1.3l0.1,0.3l-2.4,3.7
			h-0.5l-2.3-3.7l0.1-0.3c0,0.4,0.1,0.8,0.1,1.3c0,0.4,0,1,0,1.6v3H132.8L132.8,75.7z"/>
		<path class="st2" d="M140.8,75.7V69h2.6c0.4,0,0.7,0.1,0.9,0.3c0.3,0.2,0.5,0.4,0.7,0.7c0.2,0.3,0.3,0.6,0.3,1s-0.1,0.7-0.3,1.1
			c-0.1,0.3-0.4,0.5-0.7,0.7s-0.6,0.3-0.9,0.3h-1.9v2.6H140.8z M141.5,72.4h1.9c0.2,0,0.4-0.1,0.5-0.2s0.3-0.3,0.4-0.5
			c0.1-0.2,0.1-0.4,0.1-0.7c0-0.2,0-0.4-0.1-0.6s-0.2-0.3-0.4-0.4s-0.3-0.2-0.5-0.2h-1.9V72.4z"/>
		<path class="st2" d="M145.3,75.7l2.5-6.6h0.8l2.5,6.6h-0.8l-1.6-4.3c0-0.1-0.1-0.3-0.1-0.4s-0.1-0.3-0.2-0.5s-0.1-0.3-0.2-0.5
			c0-0.2-0.1-0.3-0.1-0.4h0.2c0,0.1-0.1,0.3-0.1,0.5c0,0.1-0.1,0.3-0.2,0.5c-0.1,0.1-0.1,0.3-0.2,0.5s-0.1,0.3-0.2,0.5l-1.6,4.2
			L145.3,75.7L145.3,75.7z M146.4,73.8l0.3-0.7h3.1l0.3,0.7H146.4z"/>
		<path class="st2" d="M152.4,75.7V69h0.7l4.3,5.7l-0.1,0.2c0-0.1,0-0.3,0-0.4c0-0.2,0-0.4,0-0.7s0-0.5,0-0.8s0-0.5,0-0.8
			s0-0.5,0-0.7V69h0.7v6.6h-0.7L153,70l0.1-0.2c0,0.3,0,0.5,0,0.7c0,0.3,0,0.5,0,0.7s0,0.4,0,0.6s0,0.4,0,0.5s0,0.2,0,0.3v3
			L152.4,75.7L152.4,75.7z"/>
		<path class="st2" d="M161.6,75.7v-3.3l0.1,0.5l-2.7-3.8h0.9l2.2,3.1h-0.2l2-3.1h0.8l-2.5,3.9l0.1-0.7v3.4H161.6z"/>
	</g>
</g>
<g id="Layer_2">
	<g>
		<g>
			<path class="st2" d="M37.5,6c-2.9,0-5.3,1.4-6.8,3.7c-0.9,1.5-1.4,3.3-1.4,5.6c0,2.5,0.8,4.8,2.2,6.5c1.5,1.7,3.7,2.6,6.1,2.6
				c3.7,0,6.8-2.5,7.3-5.7l0.1-0.4h-3.5l-0.1,0.3c-0.5,1.7-1.8,2.7-3.7,2.7c-2.7,0-4.5-1.8-4.7-4.6h12l0-0.3
				c0.1-0.5,0.1-1.2,0.1-1.7C45.2,9.4,42.1,6,37.5,6z M33.2,13.3c0.2-2.1,1.6-4.2,4.3-4.2c2.5,0,4,1.6,4.1,4.2H33.2z"/>
			<path class="st2" d="M73,6c-1.4,0-3.4,0.6-4.6,1.9V0.6h-3.6v23.3h3.6v-9.3c0-3.2,1.6-5.3,4-5.3c2.2,0,3.3,1.1,3.3,3.6v11h3.6
				V12.5C79.3,8.3,77,6,73,6z"/>
			<path class="st2" d="M91.1,6c-2.1,0-4,0.7-5.4,2.1c-1.7,1.7-2.6,3.9-2.6,7.1c0,3.2,0.8,5.5,2.6,7.1c1.4,1.3,3.3,2.1,5.4,2.1
				s4-0.7,5.4-2.1c1.7-1.7,2.6-3.9,2.6-7.1c0-3.2-0.8-5.5-2.6-7.1C95.2,6.7,93.3,6,91.1,6z M94,20.1c-0.7,0.7-1.7,1.1-2.9,1.1
				c-1.1,0-2.2-0.4-2.9-1.1c-1-1-1.5-2.6-1.5-5c0-2.4,0.5-3.9,1.5-4.9C89,9.5,90,9.1,91.1,9.1s2.2,0.4,2.9,1.1c1,1,1.5,2.6,1.5,4.9
				C95.5,17.5,95.1,19,94,20.1z"/>
			<path class="st2" d="M115.2,7.5c-1-1-2.6-1.6-4.4-1.6c-2,0-3.7,0.6-5,1.8c-1.9,1.6-2.9,4.3-2.9,7.4c0,3,1,5.6,2.7,7.2
				c1.4,1.3,3.1,2,5.1,2c1.4,0,3.5-0.5,4.7-2.1l2.8,1.6h0.6V0.6h-3.6V7.5z M113.7,20.1c-0.8,0.7-1.7,1.1-2.7,1.1
				c-1.3,0-2.3-0.4-3.1-1.3c-0.9-1-1.4-2.7-1.4-4.8c0-2.1,0.6-3.9,1.5-4.9c0.7-0.8,1.7-1.1,3-1.1c1,0,1.8,0.3,2.6,1
				c1.1,1,1.7,2.6,1.7,5C115.3,17.5,114.8,19.2,113.7,20.1z"/>
			<path class="st2" d="M132.3,13.7l-3.9-0.6c-1.4-0.2-2-0.8-2-1.7c0-1.4,1.3-2.3,3.3-2.3c2.1,0,3.3,0.8,3.8,2.4l0.1,0.5l2.8-1.6
				l-0.1-0.3c-0.8-2.5-3.4-4.1-6.7-4.1c-3.8,0-6.7,2.4-6.7,5.5c0,2.6,1.7,4.4,4.5,4.8l3.7,0.6c1.5,0.2,2.3,0.9,2.3,1.9
				c0,1.7-1.8,2.4-3.5,2.4c-2.5,0-3.8-0.9-4.4-2.9l-0.1-0.5l-2.9,1.6l0.1,0.3c0.8,2.7,3.6,4.5,7.2,4.5c4.3,0,7.2-2.3,7.2-5.7
				C137,16.1,135.1,14.1,132.3,13.7z"/>
			<polygon class="st2" points="0.2,0.6 0.2,23.9 3.8,23.9 3.8,7.9 9.7,23.9 11.5,23.9 13.8,23.9 15.7,23.9 21.6,7.9 21.6,23.9 
				25.2,23.9 25.2,0.6 20.2,0.6 12.7,20.8 5.2,0.6 			"/>
		</g>
		<g>
			<g>
				<path class="st2" d="M35.5,36.4c-1.6,0-3.7,0.5-4.9,2.1l-2.8-1.6h-0.6v17.4l3.6,0v-9.5c0-3.1,1.7-5.2,4.1-5.2
					c2.7,0,3.2,2,3.2,3.6v11h3.6V42.9C41.8,38.8,39.5,36.4,35.5,36.4z"/>
				<polygon class="st2" points="64.8,54.3 68.4,54.3 68.4,30.7 64.8,32.8 				"/>
				<rect x="103.9" y="31" class="st2" width="4" height="4.1"/>
				<polygon class="st2" points="104.1,54.3 107.7,54.3 107.7,36.6 104.1,38.7 				"/>
				<path class="st2" d="M123.3,48.3c-0.2,1.9-1.7,3.2-3.7,3.2c-1.3,0-2.3-0.5-3.1-1.4c-0.8-0.9-1.2-2.5-1.2-4.6
					c0-2,0.4-3.5,1.2-4.4c0.8-1,1.8-1.5,3.1-1.5c2,0,3.4,1.2,3.6,3.2l0,0.4h3.6l0-0.4c-0.2-3.9-3.1-6.4-7.2-6.4
					c-2.5,0-4.4,0.8-5.9,2.5c-1.4,1.6-2.2,3.9-2.2,6.7c0,3,0.8,5.4,2.4,7c1.4,1.4,3.3,2.2,5.6,2.2c4,0,7-2.6,7.3-6.4l0-0.4h-3.7
					L123.3,48.3z"/>
				<path class="st2" d="M139.7,44.1l-3.9-0.6c-1.4-0.2-2-0.8-2-1.7c0-1.4,1.3-2.3,3.3-2.3c2.1,0,3.3,0.8,3.8,2.4l0.1,0.5l2.8-1.6
					l-0.1-0.3c-0.8-2.5-3.4-4.1-6.7-4.1c-3.8,0-6.7,2.4-6.7,5.5c0,2.6,1.7,4.4,4.5,4.8l3.7,0.6c1.5,0.2,2.3,0.9,2.3,1.9
					c0,1.7-1.8,2.4-3.5,2.4c-2.5,0-3.8-0.9-4.4-2.9l-0.1-0.5l-2.8,1.6l0.1,0.3c0.8,2.7,3.6,4.5,7.2,4.5c4.3,0,7.2-2.3,7.2-5.7
					C144.3,46.5,142.5,44.5,139.7,44.1z"/>
				<path class="st2" d="M9.7,31L1.1,54.3h4.1l2.3-6.2h10.4l2.3,6.2h4.1L15.7,31H9.7z M8.8,44.6l3.9-10.4l3.9,10.4H8.8z"/>
				<polygon class="st2" points="79,50.4 74,36.8 70.2,36.8 76.7,54.3 77.6,54.3 74.9,61.6 78.6,61.6 87.8,36.8 84,36.8 				"/>
			</g>
			<g>
				<path class="st2" d="M57,52.8c-1,1.6-3.1,2-5.3,2c-4.3,0-6.2-2.8-6.2-5.5c0-2.4,1.7-5.2,6.4-5.6l5-0.4v-0.6
					c0-2.4-1.2-3.6-3.7-3.6c-2.3,0-3.7,1.2-3.8,3.1l0,0.2H46l0-0.2c0.1-3.9,3.7-5.9,7.1-5.9c4.5,0,7,2.4,7,6.6v7.2v4.3h-0.6L57,52.8
					z M52.5,46.5c-1.1,0.1-3.6,0.5-3.6,2.8c0,1.2,0.8,2.7,3.2,2.7c2.8,0,4.7-2,4.7-4.9v-1L52.5,46.5z"/>
			</g>
			<path class="st2" d="M97.3,50.6c-0.9,0-1.7-0.7-1.7-1.7v-9h4.7v-3.2h-4.8v-6.1l-3.6,2.1v4h-1.2L89.5,40H92v9.8
				c0,2.5,2,4.5,4.5,4.5h3.9l0-3.6H97.3z"/>
		</g>
		<path class="st2" d="M60,9.6V6.4h-4.8V0.3l-3.6,2.1v4H48v3.2h3.6v9.8c0,2.5,2,4.5,4.5,4.5H60l0-3.6h-3.1c-0.9,0-1.7-0.7-1.7-1.7
			v-9H60z"/>
	</g>
</g>
</svg>
